<?xml version="1.0" encoding="UTF-8" standalone="no"?>
<!-- Created with Inkscape (http://www.inkscape.org/) -->

<svg
   width="279.39999mm"
   height="215.90001mm"
   viewBox="0 0 279.39999 215.90001"
   version="1.1"
   id="svg1"
   xml:space="preserve"
   inkscape:version="1.3.2 (091e20e, 2023-11-25, custom)"
   sodipodi:docname="drawing-5.svg"
   xmlns:inkscape="http://www.inkscape.org/namespaces/inkscape"
   xmlns:sodipodi="http://sodipodi.sourceforge.net/DTD/sodipodi-0.dtd"
   xmlns="http://www.w3.org/2000/svg"
   xmlns:svg="http://www.w3.org/2000/svg"><sodipodi:namedview
     id="namedview1"
     pagecolor="#ffffff"
     bordercolor="#000000"
     borderopacity="0.25"
     inkscape:showpageshadow="2"
     inkscape:pageopacity="0.0"
     inkscape:pagecheckerboard="0"
     inkscape:deskcolor="#d1d1d1"
     inkscape:document-units="mm"
     inkscape:zoom="0.76702441"
     inkscape:cx="476.51678"
     inkscape:cy="391.77371"
     inkscape:window-width="1920"
     inkscape:window-height="1057"
     inkscape:window-x="-8"
     inkscape:window-y="-8"
     inkscape:window-maximized="1"
     inkscape:current-layer="layer-OC0"><inkscape:page
       x="0"
       y="0"
       width="279.39999"
       height="215.90001"
       id="page2"
       margin="0"
       bleed="0" /></sodipodi:namedview><defs
     id="defs1"><clipPath
       clipPathUnits="userSpaceOnUse"
       id="clipPath178"><path
         d="M 691,216 H 6466 V 4875 H 691 Z"
         id="path178" /></clipPath><clipPath
       clipPathUnits="userSpaceOnUse"
       id="clipPath180"><path
         d="M 691,216 H 6466 V 4875 H 691 Z"
         id="path180" /></clipPath><clipPath
       clipPathUnits="userSpaceOnUse"
       id="clipPath182"><path
         d="M 691,216 H 6466 V 4875 H 691 Z"
         id="path182" /></clipPath><clipPath
       clipPathUnits="userSpaceOnUse"
       id="clipPath184"><path
         d="M 691,216 H 6466 V 4875 H 691 Z"
         id="path184" /></clipPath><clipPath
       clipPathUnits="userSpaceOnUse"
       id="clipPath186"><path
         d="M 691,216 H 6466 V 4875 H 691 Z"
         id="path186" /></clipPath><clipPath
       clipPathUnits="userSpaceOnUse"
       id="clipPath188"><path
         d="M 691,216 H 6466 V 4875 H 691 Z"
         id="path188" /></clipPath><clipPath
       clipPathUnits="userSpaceOnUse"
       id="clipPath190"><path
         d="M 691,216 H 6466 V 4875 H 691 Z"
         id="path190" /></clipPath><clipPath
       clipPathUnits="userSpaceOnUse"
       id="clipPath192"><path
         d="M 691,216 H 6466 V 4875 H 691 Z"
         id="path192" /></clipPath><clipPath
       clipPathUnits="userSpaceOnUse"
       id="clipPath194"><path
         d="M 691,216 H 6466 V 4875 H 691 Z"
         id="path194" /></clipPath><clipPath
       clipPathUnits="userSpaceOnUse"
       id="clipPath196"><path
         d="M 691,216 H 6466 V 4875 H 691 Z"
         id="path196" /></clipPath><clipPath
       clipPathUnits="userSpaceOnUse"
       id="clipPath198"><path
         d="M 691,216 H 6466 V 4875 H 691 Z"
         id="path198" /></clipPath><clipPath
       clipPathUnits="userSpaceOnUse"
       id="clipPath200"><path
         d="M 691,216 H 6466 V 4875 H 691 Z"
         id="path200" /></clipPath><clipPath
       clipPathUnits="userSpaceOnUse"
       id="clipPath202"><path
         d="M 691,216 H 6466 V 4875 H 691 Z"
         id="path202" /></clipPath><clipPath
       clipPathUnits="userSpaceOnUse"
       id="clipPath204"><path
         d="M 691,216 H 6466 V 4875 H 691 Z"
         id="path204" /></clipPath><clipPath
       clipPathUnits="userSpaceOnUse"
       id="clipPath206"><path
         d="M 691,216 H 6466 V 4875 H 691 Z"
         id="path206" /></clipPath><clipPath
       clipPathUnits="userSpaceOnUse"
       id="clipPath208"><path
         d="M 691,216 H 6466 V 4875 H 691 Z"
         id="path208" /></clipPath><clipPath
       clipPathUnits="userSpaceOnUse"
       id="clipPath210"><path
         d="M 691,216 H 6466 V 4875 H 691 Z"
         id="path210" /></clipPath><clipPath
       clipPathUnits="userSpaceOnUse"
       id="clipPath212"><path
         d="M 691,216 H 6466 V 4875 H 691 Z"
         id="path212" /></clipPath><clipPath
       clipPathUnits="userSpaceOnUse"
       id="clipPath214"><path
         d="M 691,216 H 6466 V 4875 H 691 Z"
         id="path214" /></clipPath><clipPath
       clipPathUnits="userSpaceOnUse"
       id="clipPath216"><path
         d="M 691,216 H 6466 V 4875 H 691 Z"
         id="path216" /></clipPath><clipPath
       clipPathUnits="userSpaceOnUse"
       id="clipPath218"><path
         d="M 691,216 H 6466 V 4875 H 691 Z"
         id="path218" /></clipPath><clipPath
       clipPathUnits="userSpaceOnUse"
       id="clipPath220"><path
         d="M 691,216 H 6466 V 4875 H 691 Z"
         id="path220" /></clipPath><clipPath
       clipPathUnits="userSpaceOnUse"
       id="clipPath429"><path
         d="M 125,125 H 4966 V 5908 H 125 Z"
         transform="translate(-179.04,-4647.9502)"
         id="path429" /></clipPath><clipPath
       clipPathUnits="userSpaceOnUse"
       id="clipPath430"><path
         d="M 125,125 H 4966 V 5908 H 125 Z"
         transform="matrix(0.12,0,0,-0.12,-29.433076,563.17831)"
         id="path430" /></clipPath><clipPath
       clipPathUnits="userSpaceOnUse"
       id="clipPath439"><path
         d="M 125,125 H 4966 V 5908 H 125 Z"
         transform="matrix(0.12,0,0,-0.12,-33.485776,542.38611)"
         id="path439" /></clipPath><clipPath
       clipPathUnits="userSpaceOnUse"
       id="clipPath441"><path
         d="M 125,125 H 4966 V 5908 H 125 Z"
         transform="translate(-3761.94,-4647.9502)"
         id="path441" /></clipPath><clipPath
       clipPathUnits="userSpaceOnUse"
       id="clipPath447"><path
         d="M 125,125 H 4966 V 5908 H 125 Z"
         transform="matrix(0.12,0,0,-0.12,-285.53348,541.92431)"
         id="path447" /></clipPath><clipPath
       clipPathUnits="userSpaceOnUse"
       id="clipPath449"><path
         d="M 125,125 H 4966 V 5908 H 125 Z"
         transform="translate(-179.04,-3454.3601)"
         id="path449" /></clipPath><clipPath
       clipPathUnits="userSpaceOnUse"
       id="clipPath451"><path
         d="M 125,125 H 4966 V 5908 H 125 Z"
         transform="translate(-2346.34,-4647.9502)"
         id="path451" /></clipPath><clipPath
       clipPathUnits="userSpaceOnUse"
       id="clipPath453"><path
         d="M 125,125 H 4966 V 5908 H 125 Z"
         transform="translate(-2346.34,-3942.99)"
         id="path453" /></clipPath><clipPath
       clipPathUnits="userSpaceOnUse"
       id="clipPath455"><path
         d="M 125,125 H 4966 V 5908 H 125 Z"
         transform="translate(-2346.34,-4073.8501)"
         id="path455" /></clipPath><clipPath
       clipPathUnits="userSpaceOnUse"
       id="clipPath457"><path
         d="M 125,125 H 4966 V 5908 H 125 Z"
         transform="translate(-2346.34,-4209.9502)"
         id="path457" /></clipPath><clipPath
       clipPathUnits="userSpaceOnUse"
       id="clipPath459"><path
         d="M 125,125 H 4966 V 5908 H 125 Z"
         transform="translate(-2346.34,-4346.04)"
         id="path459" /></clipPath><clipPath
       clipPathUnits="userSpaceOnUse"
       id="clipPath461"><path
         d="M 125,125 H 4966 V 5908 H 125 Z"
         transform="translate(-2346.34,-4482.1401)"
         id="path461" /></clipPath><clipPath
       clipPathUnits="userSpaceOnUse"
       id="clipPath463"><path
         d="M 125,125 H 4966 V 5908 H 125 Z"
         transform="translate(-1587.34,-4504.4399)"
         id="path463" /></clipPath><clipPath
       clipPathUnits="userSpaceOnUse"
       id="clipPath465"><path
         d="M 125,125 H 4966 V 5908 H 125 Z"
         transform="translate(-1587.34,-4361.75)"
         id="path465" /></clipPath><clipPath
       clipPathUnits="userSpaceOnUse"
       id="clipPath467"><path
         d="M 125,125 H 4966 V 5908 H 125 Z"
         transform="translate(-179.04,-4176.73)"
         id="path467" /></clipPath><clipPath
       clipPathUnits="userSpaceOnUse"
       id="clipPath469"><path
         d="M 125,125 H 4966 V 5908 H 125 Z"
         transform="translate(-3953.33,-4487.3799)"
         id="path469" /></clipPath><clipPath
       clipPathUnits="userSpaceOnUse"
       id="clipPath470"><path
         d="M 125,125 H 4966 V 5908 H 125 Z"
         transform="matrix(0.12,0,0,-0.12,-492.92311,400.59271)"
         id="path470" /></clipPath><clipPath
       clipPathUnits="userSpaceOnUse"
       id="clipPath472"><path
         d="M 125,125 H 4966 V 5908 H 125 Z"
         transform="translate(-4073.73,-3299.1399)"
         id="path472" /></clipPath><clipPath
       clipPathUnits="userSpaceOnUse"
       id="clipPath474"><path
         d="M 125,125 H 4966 V 5908 H 125 Z"
         transform="translate(-228.18,-3323.5)"
         id="path474" /></clipPath><clipPath
       clipPathUnits="userSpaceOnUse"
       id="clipPath476"><path
         d="M 125,125 H 4966 V 5908 H 125 Z"
         transform="translate(-885.92,-4361.75)"
         id="path476" /></clipPath><clipPath
       clipPathUnits="userSpaceOnUse"
       id="clipPath478"><path
         d="M 125,125 H 4966 V 5908 H 125 Z"
         transform="translate(-1416.41,-3454.3601)"
         id="path478" /></clipPath><clipPath
       clipPathUnits="userSpaceOnUse"
       id="clipPath480"><path
         d="M 125,125 H 4966 V 5908 H 125 Z"
         transform="translate(-179.04,-3609.9399)"
         id="path480" /></clipPath><clipPath
       clipPathUnits="userSpaceOnUse"
       id="clipPath482"><path
         d="M 125,125 H 4966 V 5908 H 125 Z"
         transform="translate(-179.04,-3761.74)"
         id="path482" /></clipPath><clipPath
       clipPathUnits="userSpaceOnUse"
       id="clipPath484"><path
         d="M 125,125 H 4966 V 5908 H 125 Z"
         transform="translate(-179.04,-3913.54)"
         id="path484" /></clipPath><clipPath
       clipPathUnits="userSpaceOnUse"
       id="clipPath486"><path
         d="M 125,125 H 4966 V 5908 H 125 Z"
         transform="translate(-179.04,-4054.8799)"
         id="path486" /></clipPath><clipPath
       clipPathUnits="userSpaceOnUse"
       id="clipPath488"><path
         d="M 125,125 H 4966 V 5908 H 125 Z"
         transform="translate(-3731.74,-3684.76)"
         id="path488" /></clipPath><clipPath
       clipPathUnits="userSpaceOnUse"
       id="clipPath490"><path
         d="M 125,125 H 4966 V 5908 H 125 Z"
         transform="translate(-3731.74,-3544.3)"
         id="path490" /></clipPath><clipPath
       clipPathUnits="userSpaceOnUse"
       id="clipPath492"><path
         d="M 125,125 H 4966 V 5908 H 125 Z"
         transform="translate(-882.7,-4221.5698)"
         id="path492" /></clipPath><clipPath
       clipPathUnits="userSpaceOnUse"
       id="clipPath494"><path
         d="M 125,125 H 4966 V 5908 H 125 Z"
         transform="translate(-1517.2,-4221.5698)"
         id="path494" /></clipPath><clipPath
       clipPathUnits="userSpaceOnUse"
       id="clipPath496"><path
         d="M 125,125 H 4966 V 5908 H 125 Z"
         transform="translate(-1587.34,-4361.75)"
         id="path496" /></clipPath><clipPath
       clipPathUnits="userSpaceOnUse"
       id="clipPath498"><path
         d="M 125,125 H 4966 V 5908 H 125 Z"
         transform="translate(-1587.34,-4504.4399)"
         id="path498" /></clipPath><clipPath
       clipPathUnits="userSpaceOnUse"
       id="clipPath502"><path
         d="M 125,125 H 4966 V 5908 H 125 Z"
         transform="matrix(0.12,0,0,-0.13199932,-66.473802,608.19784)"
         id="path502" /></clipPath><clipPath
       clipPathUnits="userSpaceOnUse"
       id="clipPath507"><path
         d="M 125,125 H 4966 V 5908 H 125 Z"
         transform="matrix(0.12,0,0,-0.13199988,-39.238676,589.49167)"
         id="path507" /></clipPath><clipPath
       clipPathUnits="userSpaceOnUse"
       id="clipPath509"><path
         d="M 125,125 H 4966 V 5908 H 125 Z"
         transform="translate(-2.0833334e-4)"
         id="path509" /></clipPath><clipPath
       clipPathUnits="userSpaceOnUse"
       id="clipPath511"><path
         d="M 125,125 H 4966 V 5908 H 125 Z"
         transform="translate(-273.95021,-4583.1099)"
         id="path511" /></clipPath><clipPath
       clipPathUnits="userSpaceOnUse"
       id="clipPath513"><path
         d="M 125,125 H 4966 V 5908 H 125 Z"
         transform="translate(-273.95021,-4434.2998)"
         id="path513" /></clipPath><clipPath
       clipPathUnits="userSpaceOnUse"
       id="clipPath515"><path
         d="M 125,125 H 4966 V 5908 H 125 Z"
         transform="translate(-273.95021,-4299.02)"
         id="path515" /></clipPath><clipPath
       clipPathUnits="userSpaceOnUse"
       id="clipPath517"><path
         d="M 125,125 H 4966 V 5908 H 125 Z"
         transform="translate(-273.95021,-4163.75)"
         id="path517" /></clipPath><clipPath
       clipPathUnits="userSpaceOnUse"
       id="clipPath519"><path
         d="M 125,125 H 4966 V 5908 H 125 Z"
         transform="translate(-273.95021,-4028.47)"
         id="path519" /></clipPath><clipPath
       clipPathUnits="userSpaceOnUse"
       id="clipPath521"><path
         d="M 125,125 H 4966 V 5908 H 125 Z"
         transform="translate(-2.0833334e-4)"
         id="path521" /></clipPath><clipPath
       clipPathUnits="userSpaceOnUse"
       id="clipPath522"><path
         d="M 125,125 H 4966 V 5908 H 125 Z"
         transform="matrix(0.12,0,0,-0.12,-40.024676,443.09571)"
         id="path522" /></clipPath><clipPath
       clipPathUnits="userSpaceOnUse"
       id="clipPath524"><path
         d="M 125,125 H 4966 V 5908 H 125 Z"
         transform="translate(-2.0833334e-4)"
         id="path524" /></clipPath><clipPath
       clipPathUnits="userSpaceOnUse"
       id="clipPath526"><path
         d="M 125,125 H 4966 V 5908 H 125 Z"
         transform="translate(-1274.0202,-3673.52)"
         id="path526" /></clipPath></defs><g
     inkscape:label="Layer 1"
     inkscape:groupmode="layer"
     id="layer1"
     transform="translate(-220.00001)" /><g
     id="layer-OC0"
     inkscape:groupmode="layer"
     inkscape:label="0"
     transform="matrix(0.26458333,0,0,0.26458334,2.125984e-6,0)"><path
       style="color:#000000;fill:#000000;stroke-linecap:round;stroke-linejoin:round;stroke-miterlimit:10;-inkscape-stroke:none;opacity:0.15"
       d="m 149.9668,270.24414 a 0.62430501,0.62430501 0 0 0 -0.44141,0.18164 l -2.32812,2.32813 a 0.62430501,0.62430501 0 0 0 0,0.88281 0.62430501,0.62430501 0 0 0 0.88281,0 l 2.32812,-2.32813 a 0.62430501,0.62430501 0 0 0 0,-0.88281 0.62430501,0.62430501 0 0 0 -0.4414,-0.18164 z"
       id="path1" /><path
       style="color:#000000;fill:#000000;stroke-linecap:round;stroke-linejoin:round;stroke-miterlimit:10;-inkscape-stroke:none;opacity:0.15"
       d="m 161.60937,270.24414 a 0.62430501,0.62430501 0 0 0 -0.4414,0.18164 l -13.9707,13.9707 a 0.62430501,0.62430501 0 0 0 0,0.88282 0.62430501,0.62430501 0 0 0 0.88281,0 l 13.9707,-13.97071 a 0.62430501,0.62430501 0 0 0 0,-0.88281 0.62430501,0.62430501 0 0 0 -0.44141,-0.18164 z"
       id="path2" /><path
       style="color:#000000;fill:#000000;stroke-linecap:round;stroke-linejoin:round;stroke-miterlimit:10;-inkscape-stroke:none;opacity:0.15"
       d="m 172.33594,271.16016 a 0.62430501,0.62430501 0 0 0 -0.44141,0.18164 l -24.69726,24.69726 a 0.62430501,0.62430501 0 0 0 0,0.88281 0.62430501,0.62430501 0 0 0 0.88281,0 l 24.69726,-24.69726 a 0.62430501,0.62430501 0 0 0 0,-0.88281 0.62430501,0.62430501 0 0 0 -0.4414,-0.18164 z"
       id="path3" /><path
       style="color:#000000;fill:#000000;stroke-linecap:round;stroke-linejoin:round;stroke-miterlimit:10;-inkscape-stroke:none;opacity:0.15"
       d="m 171.89453,282.98437 -24.69726,24.69727 a 0.62430501,0.62430501 0 0 0 0,0.88281 0.62430501,0.62430501 0 0 0 0.88281,0 l 24.69726,-24.69726 a 0.62430501,0.62430501 0 0 0 0,-0.88282 0.62430501,0.62430501 0 0 0 -0.88281,0 z"
       id="path4" /><path
       style="color:#000000;fill:#000000;stroke-linecap:round;stroke-linejoin:round;stroke-miterlimit:10;-inkscape-stroke:none;opacity:0.15"
       d="m 171.89453,294.62695 -24.69726,24.69727 a 0.62430501,0.62430501 0 0 0 0,0.88281 0.62430501,0.62430501 0 0 0 0.88281,0 l 24.69726,-24.69726 a 0.62430501,0.62430501 0 0 0 0,-0.88282 0.62430501,0.62430501 0 0 0 -0.88281,0 z"
       id="path5" /><path
       style="color:#000000;fill:#000000;stroke-linecap:round;stroke-linejoin:round;stroke-miterlimit:10;-inkscape-stroke:none;opacity:0.15"
       d="m 171.89453,306.26758 -24.69726,24.70117 a 0.62430501,0.62430501 0 0 0 0,0.88281 0.62430501,0.62430501 0 0 0 0.88281,0 l 24.69726,-24.69922 a 0.62430501,0.62430501 0 0 0 0,-0.88476 0.62430501,0.62430501 0 0 0 -0.88281,0 z"
       id="path6" /><path
       style="color:#000000;fill:#000000;stroke-linecap:round;stroke-linejoin:round;stroke-miterlimit:10;-inkscape-stroke:none;opacity:0.15"
       d="m 171.89453,317.91211 -24.69726,24.69726 a 0.62430501,0.62430501 0 0 0 0,0.88282 0.62430501,0.62430501 0 0 0 0.88281,0 l 24.69726,-24.69727 a 0.62430501,0.62430501 0 0 0 0,-0.88281 0.62430501,0.62430501 0 0 0 -0.88281,0 z"
       id="path7" /><path
       style="color:#000000;fill:#000000;stroke-linecap:round;stroke-linejoin:round;stroke-miterlimit:10;-inkscape-stroke:none;opacity:0.15"
       d="m 171.89453,329.55469 -24.69726,24.69922 a 0.62430501,0.62430501 0 0 0 0,0.88281 0.62430501,0.62430501 0 0 0 0.88281,0 l 24.69726,-24.69727 a 0.62430501,0.62430501 0 0 0 0,-0.88476 0.62430501,0.62430501 0 0 0 -0.88281,0 z"
       id="path8" /><path
       style="color:#000000;fill:#000000;stroke-linecap:round;stroke-linejoin:round;stroke-miterlimit:10;-inkscape-stroke:none;opacity:0.15"
       d="m 177.19727,336.1543 a 0.62430501,0.62430501 0 0 0 -0.44141,0.18164 l -29.55859,29.55859 a 0.62430501,0.62430501 0 0 0 0,0.88281 0.62430501,0.62430501 0 0 0 0.88281,0 l 29.55859,-29.55859 a 0.62430501,0.62430501 0 0 0 0,-0.88281 0.62430501,0.62430501 0 0 0 -0.4414,-0.18164 z"
       id="path9" /><path
       style="color:#000000;fill:#000000;stroke-linecap:round;stroke-linejoin:round;stroke-miterlimit:10;-inkscape-stroke:none;opacity:0.15"
       d="m 178.48047,346.25391 -31.2832,31.2832 a 0.62430501,0.62430501 0 0 0 0,0.88281 0.62430501,0.62430501 0 0 0 0.88281,0 l 31.28515,-31.2832 a 0.62430501,0.62430501 0 0 0 0,-0.88281 0.62430501,0.62430501 0 0 0 -0.88476,0 z"
       id="path10" /><path
       style="color:#000000;fill:#000000;stroke-linecap:round;stroke-linejoin:round;stroke-miterlimit:10;-inkscape-stroke:none;opacity:0.15"
       d="m 178.48047,357.89648 -31.2832,31.28321 a 0.62430501,0.62430501 0 0 0 0,0.88281 0.62430501,0.62430501 0 0 0 0.88281,0 l 31.28515,-31.2832 a 0.62430501,0.62430501 0 0 0 0,-0.88282 0.62430501,0.62430501 0 0 0 -0.88476,0 z"
       id="path11" /><path
       style="color:#000000;fill:#000000;stroke-linecap:round;stroke-linejoin:round;stroke-miterlimit:10;-inkscape-stroke:none;opacity:0.15"
       d="m 178.92383,369.35742 a 0.62430501,0.62430501 0 0 0 -0.44336,0.18164 l -31.2832,31.28321 a 0.62430501,0.62430501 0 0 0 0,0.88281 0.62430501,0.62430501 0 0 0 0.88281,0 l 31.28515,-31.28321 a 0.62430501,0.62430501 0 0 0 0,-0.88281 0.62430501,0.62430501 0 0 0 -0.4414,-0.18164 z"
       id="path12" /><path
       style="color:#000000;fill:#000000;stroke-linecap:round;stroke-linejoin:round;stroke-miterlimit:10;-inkscape-stroke:none;opacity:0.15"
       d="m 178.48047,381.18164 -20.45117,20.45313 a 0.62430501,0.62430501 0 0 0 0,0.88281 0.62430501,0.62430501 0 0 0 0.88281,0 l 20.45312,-20.45313 a 0.62430501,0.62430501 0 0 0 0,-0.88281 0.62430501,0.62430501 0 0 0 -0.88476,0 z"
       id="path13" /><path
       style="color:#000000;fill:#000000;stroke-linecap:round;stroke-linejoin:round;stroke-miterlimit:10;-inkscape-stroke:none;opacity:0.15"
       d="m 178.92383,392.64062 a 0.62430501,0.62430501 0 0 0 -0.44336,0.1836 l -8.8086,8.81055 a 0.62430501,0.62430501 0 0 0 0,0.88281 0.62430501,0.62430501 0 0 0 0.88282,0 l 8.81054,-8.81055 a 0.62430501,0.62430501 0 0 0 0,-0.88281 0.62430501,0.62430501 0 0 0 -0.4414,-0.1836 z"
       id="path14" /><path
       style="color:#000000;fill:#000000;stroke-linecap:round;stroke-linejoin:round;stroke-miterlimit:10;-inkscape-stroke:none;opacity:0.15"
       d="m 154.61914,451.875 a 0.62430501,0.62430501 0 0 0 -0.44141,0.18164 l -6.98046,6.98047 a 0.62430501,0.62430501 0 0 0 0,0.88281 0.62430501,0.62430501 0 0 0 0.88281,0 l 6.98047,-6.98047 a 0.62430501,0.62430501 0 0 0 0,-0.88281 0.62430501,0.62430501 0 0 0 -0.44141,-0.18164 z"
       id="path15" /><path
       style="color:#000000;fill:#000000;stroke-linecap:round;stroke-linejoin:round;stroke-miterlimit:10;-inkscape-stroke:none;opacity:0.15"
       d="m 165.81836,452.05664 -18.62109,18.62109 a 0.62430501,0.62430501 0 0 0 0,0.88282 0.62430501,0.62430501 0 0 0 0.88281,0 l 18.62109,-18.6211 a 0.62430501,0.62430501 0 0 0 0,-0.88281 0.62430501,0.62430501 0 0 0 -0.88281,0 z"
       id="path16" /><path
       style="color:#000000;fill:#000000;stroke-linecap:round;stroke-linejoin:round;stroke-miterlimit:10;-inkscape-stroke:none;opacity:0.15"
       d="m 177.9043,451.875 a 0.62430501,0.62430501 0 0 0 -0.44141,0.18164 l -30.26562,30.26563 a 0.62430501,0.62430501 0 0 0 0,0.88281 0.62430501,0.62430501 0 0 0 0.88281,0 l 30.26562,-30.26563 a 0.62430501,0.62430501 0 0 0 0,-0.88281 0.62430501,0.62430501 0 0 0 -0.4414,-0.18164 z"
       id="path17" /><path
       style="color:#000000;fill:#000000;stroke-linecap:round;stroke-linejoin:round;stroke-miterlimit:10;-inkscape-stroke:none;opacity:0.15"
       d="m 178.92187,462.49609 a 0.62430501,0.62430501 0 0 0 -0.4414,0.1836 l -31.2832,31.28515 a 0.62430501,0.62430501 0 0 0 0,0.88282 0.62430501,0.62430501 0 0 0 0.88281,0 l 31.28515,-31.28516 a 0.62430501,0.62430501 0 0 0 0,-0.88281 0.62430501,0.62430501 0 0 0 -0.44336,-0.1836 z"
       id="path18" /><path
       style="color:#000000;fill:#000000;stroke-linecap:round;stroke-linejoin:round;stroke-miterlimit:10;-inkscape-stroke:none;opacity:0.15"
       d="m 178.92383,474.14062 a 0.62430501,0.62430501 0 0 0 -0.44336,0.18165 l -31.2832,31.2832 a 0.62430501,0.62430501 0 0 0 0,0.88476 0.62430501,0.62430501 0 0 0 0.88281,0 l 31.28515,-31.28515 a 0.62430501,0.62430501 0 0 0 0,-0.88281 0.62430501,0.62430501 0 0 0 -0.4414,-0.18165 z"
       id="path19" /><path
       style="color:#000000;fill:#000000;stroke-linecap:round;stroke-linejoin:round;stroke-miterlimit:10;-inkscape-stroke:none;opacity:0.15"
       d="m 178.92383,485.7832 a 0.62430501,0.62430501 0 0 0 -0.44336,0.1836 l -31.2832,31.2832 a 0.62430501,0.62430501 0 0 0 0,0.88281 0.62430501,0.62430501 0 0 0 0.88281,0 l 31.28515,-31.2832 a 0.62430501,0.62430501 0 0 0 0,-0.88281 0.62430501,0.62430501 0 0 0 -0.4414,-0.1836 z"
       id="path20" /><path
       style="color:#000000;fill:#000000;stroke-linecap:round;stroke-linejoin:round;stroke-miterlimit:10;-inkscape-stroke:none;opacity:0.15"
       d="m 178.92383,497.42578 a 0.62430501,0.62430501 0 0 0 -0.44336,0.18164 l -31.2832,31.2832 a 0.62430501,0.62430501 0 0 0 0,0.88282 0.62430501,0.62430501 0 0 0 0.88281,0 l 31.28515,-31.28321 a 0.62430501,0.62430501 0 0 0 0,-0.88281 0.62430501,0.62430501 0 0 0 -0.4414,-0.18164 z"
       id="path21" /><path
       style="color:#000000;fill:#000000;stroke-linecap:round;stroke-linejoin:round;stroke-miterlimit:10;-inkscape-stroke:none;opacity:0.15"
       d="m 178.92383,509.06836 a 0.62430501,0.62430501 0 0 0 -0.44336,0.18359 l -31.2832,31.28321 a 0.62430501,0.62430501 0 0 0 0,0.88281 0.62430501,0.62430501 0 0 0 0.88281,0 l 31.28515,-31.2832 a 0.62430501,0.62430501 0 0 0 0,-0.88282 0.62430501,0.62430501 0 0 0 -0.4414,-0.18359 z"
       id="path22" /><path
       style="color:#000000;fill:#000000;stroke-linecap:round;stroke-linejoin:round;stroke-miterlimit:10;-inkscape-stroke:none;opacity:0.15"
       d="m 171.89453,527.47852 -24.69726,24.69726 a 0.62430501,0.62430501 0 0 0 0,0.88281 0.62430501,0.62430501 0 0 0 0.88281,0 l 24.69726,-24.69726 a 0.62430501,0.62430501 0 0 0 0,-0.88281 0.62430501,0.62430501 0 0 0 -0.88281,0 z"
       id="path23" /><path
       style="color:#000000;fill:#000000;stroke-linecap:round;stroke-linejoin:round;stroke-miterlimit:10;-inkscape-stroke:none;opacity:0.15"
       d="m 171.89453,539.12305 -24.69726,24.69726 a 0.62430501,0.62430501 0 0 0 0,0.88281 0.62430501,0.62430501 0 0 0 0.88281,0 l 24.69726,-24.69726 a 0.62430501,0.62430501 0 0 0 0,-0.88281 0.62430501,0.62430501 0 0 0 -0.88281,0 z"
       id="path24" /><path
       style="color:#000000;fill:#000000;stroke-linecap:round;stroke-linejoin:round;stroke-miterlimit:10;-inkscape-stroke:none;opacity:0.15"
       d="m 171.89453,550.76367 -24.69726,24.69922 a 0.62430501,0.62430501 0 0 0 0,0.88281 0.62430501,0.62430501 0 0 0 0.88281,0 l 24.69726,-24.69922 a 0.62430501,0.62430501 0 0 0 0,-0.88281 0.62430501,0.62430501 0 0 0 -0.88281,0 z"
       id="path25" /><path
       style="color:#000000;fill:#000000;stroke-linecap:round;stroke-linejoin:round;stroke-miterlimit:10;-inkscape-stroke:none;opacity:0.15"
       d="m 171.89453,562.4082 -20.85742,20.85742 a 0.62430501,0.62430501 0 0 0 0,0.88282 0.62430501,0.62430501 0 0 0 0.88281,0 l 20.85742,-20.85742 a 0.62430501,0.62430501 0 0 0 0,-0.88282 0.62430501,0.62430501 0 0 0 -0.88281,0 z"
       id="path26" /><path
       style="color:#000000;fill:#000000;stroke-linecap:round;stroke-linejoin:round;stroke-miterlimit:10;-inkscape-stroke:none;opacity:0.15"
       d="m 171.89453,574.05078 -9.21289,9.21484 a 0.62430501,0.62430501 0 0 0 0,0.88282 0.62430501,0.62430501 0 0 0 0.88281,0 l 9.21289,-9.21485 a 0.62430501,0.62430501 0 0 0 0,-0.88281 0.62430501,0.62430501 0 0 0 -0.88281,0 z"
       id="path27" /><path
       style="color:#000000;fill:#000000;stroke-linecap:round;stroke-linejoin:round;stroke-miterlimit:10;-inkscape-stroke:none;opacity:0.15"
       d="m 147.63867,270.24414 a 0.62430501,0.62430501 0 0 0 -0.62305,0.62305 v 312.83984 a 0.62430501,0.62430501 0 0 0 0.62305,0.625 0.62430501,0.62430501 0 0 0 0.625,-0.625 V 270.86719 a 0.62430501,0.62430501 0 0 0 -0.625,-0.62305 z"
       id="path28" /><path
       style="color:#000000;fill:#000000;stroke-linecap:round;stroke-linejoin:round;stroke-miterlimit:10;-inkscape-stroke:none;opacity:0.15"
       d="m 172.33594,270.24414 a 0.62430501,0.62430501 0 0 0 -0.62305,0.62305 v 65.86133 a 0.62430501,0.62430501 0 0 0 0.62305,0.625 0.62430501,0.62430501 0 0 0 0.625,-0.625 v -65.86133 a 0.62430501,0.62430501 0 0 0 -0.625,-0.62305 z"
       id="path29" /><path
       style="color:#000000;fill:#000000;stroke-linecap:round;stroke-linejoin:round;stroke-miterlimit:10;-inkscape-stroke:none;opacity:0.15"
       d="m 147.63867,270.24414 a 0.62430501,0.62430501 0 0 0 -0.62305,0.62305 0.62430501,0.62430501 0 0 0 0.62305,0.625 h 24.69727 a 0.62430501,0.62430501 0 0 0 0.625,-0.625 0.62430501,0.62430501 0 0 0 -0.625,-0.62305 z"
       id="path30" /><path
       style="color:#000000;fill:#000000;stroke-linecap:round;stroke-linejoin:round;stroke-miterlimit:10;-inkscape-stroke:none;opacity:0.15"
       d="m 147.63867,583.08203 a 0.62430501,0.62430501 0 0 0 -0.62305,0.625 0.62430501,0.62430501 0 0 0 0.62305,0.625 h 24.69727 a 0.62430501,0.62430501 0 0 0 0.625,-0.625 0.62430501,0.62430501 0 0 0 -0.625,-0.625 z"
       id="path31" /><path
       style="color:#000000;fill:#000000;stroke-linecap:round;stroke-linejoin:round;stroke-miterlimit:10;-inkscape-stroke:none;opacity:0.15"
       d="m 178.92383,336.16992 a 0.62430501,0.62430501 0 0 0 -0.625,0.625 V 517.7793 a 0.62430501,0.62430501 0 0 0 0.625,0.625 0.62430501,0.62430501 0 0 0 0.62304,-0.625 V 336.79492 a 0.62430501,0.62430501 0 0 0 -0.62304,-0.625 z"
       id="path32" /><path
       style="color:#000000;fill:#000000;stroke-linecap:round;stroke-linejoin:round;stroke-miterlimit:10;-inkscape-stroke:none;opacity:0.15"
       d="m 172.33594,517.2207 a 0.62430501,0.62430501 0 0 0 -0.62305,0.625 v 65.86133 a 0.62430501,0.62430501 0 0 0 0.62305,0.625 0.62430501,0.62430501 0 0 0 0.625,-0.625 V 517.8457 a 0.62430501,0.62430501 0 0 0 -0.625,-0.625 z"
       id="path33" /><path
       style="color:#000000;fill:#000000;stroke-linecap:round;stroke-linejoin:round;stroke-miterlimit:10;-inkscape-stroke:none;opacity:0.15"
       d="m 784.51953,261.85156 a 0.62436744,0.62436744 0 0 0 -0.69726,0.21875 l -11.5254,15.36719 a 0.62436744,0.62436744 0 0 0 0.5,0.99805 h 10.9004 v 7.05859 a 0.62430501,0.62430501 0 0 0 0.625,0.625 0.62430501,0.62430501 0 0 0 0.62304,-0.625 v -7.05859 h 3.21875 a 0.62430501,0.62430501 0 0 0 0.62305,-0.625 0.62430501,0.62430501 0 0 0 -0.62305,-0.62305 h -3.21875 v -14.74219 a 0.62436744,0.62436744 0 0 0 -0.42578,-0.59375 z m -0.82226,2.4668 v 12.86914 h -9.65235 z"
       id="path34" /><path
       style="color:#000000;fill:#000000;stroke-linecap:round;stroke-linejoin:round;stroke-miterlimit:10;-inkscape-stroke:none;opacity:0.15"
       d="m 799.68945,261.82031 a 0.62436744,0.62436744 0 0 0 -0.4414,0.1836 l -3.8418,3.84179 a 0.62436744,0.62436744 0 0 0 -0.18359,0.44141 v 3.8418 a 0.62436744,0.62436744 0 0 0 0.18359,0.4414 l 3.8418,3.8418 a 0.62436744,0.62436744 0 0 0 0.4414,0.18164 h 10.90039 v 2.95898 l -7.31836,7.31836 h -3.58203 a 0.62430501,0.62430501 0 0 0 -0.625,0.62305 0.62430501,0.62430501 0 0 0 0.625,0.625 h 3.8418 a 0.62436744,0.62436744 0 0 0 0.44141,-0.18359 l 7.68359,-7.6836 a 0.62436744,0.62436744 0 0 0 0.18164,-0.4414 v -3.8418 -7.68164 a 0.62436744,0.62436744 0 0 0 -0.18164,-0.44141 l -3.8418,-3.84179 a 0.62436744,0.62436744 0 0 0 -0.4414,-0.1836 z m 0.25782,1.24805 h 7.16601 l 3.47656,3.47656 v 6.80078 h -10.64257 l -3.47657,-3.47656 v -3.32422 z"
       id="path35" /><path
       style="color:#000000;fill:#000000;stroke-linecap:round;stroke-linejoin:round;stroke-miterlimit:10;-inkscape-stroke:none;opacity:0.15"
       d="m 834.61328,261.92578 a 0.62430501,0.62430501 0 0 0 -0.86719,0.17188 l -15.36523,23.05078 a 0.62430501,0.62430501 0 0 0 0.17187,0.86523 0.62430501,0.62430501 0 0 0 0.86719,-0.17187 l 15.36524,-23.05078 a 0.62430501,0.62430501 0 0 0 -0.17188,-0.86524 z"
       id="path36" /><path
       style="color:#000000;fill:#000000;stroke-linecap:round;stroke-linejoin:round;stroke-miterlimit:10;-inkscape-stroke:none;opacity:0.15"
       d="m 849.63281,261.82031 a 0.62436744,0.62436744 0 0 0 -0.4414,0.1836 l -7.6836,7.68359 a 0.62436744,0.62436744 0 0 0 -0.18164,0.44141 v 3.83984 7.68359 a 0.62436744,0.62436744 0 0 0 0.18164,0.44141 l 3.8418,3.8418 a 0.62436744,0.62436744 0 0 0 0.44141,0.18359 h 7.68359 a 0.62436744,0.62436744 0 0 0 0.44141,-0.18359 l 3.84179,-3.8418 a 0.62436744,0.62436744 0 0 0 0.1836,-0.44141 v -3.84179 a 0.62436744,0.62436744 0 0 0 -0.1836,-0.44141 l -3.84179,-3.8418 a 0.62436744,0.62436744 0 0 0 -0.44141,-0.18164 h -10.90039 v -2.95898 l 7.31836,-7.31836 h 3.58203 a 0.62430501,0.62430501 0 0 0 0.625,-0.62305 0.62430501,0.62430501 0 0 0 -0.625,-0.625 z m -7.05859,12.77344 h 10.64258 l 3.47461,3.47656 v 3.32422 l -3.47461,3.47656 h -7.16602 l -3.47656,-3.47656 z"
       id="path37" /><path
       style="color:#000000;fill:#000000;stroke-linecap:round;stroke-linejoin:round;stroke-miterlimit:10;-inkscape-stroke:none;opacity:0.15"
       d="m 876.72461,261.85156 a 0.62436744,0.62436744 0 0 0 -0.69727,0.21875 L 864.5,277.4375 a 0.62436744,0.62436744 0 0 0 0.5,0.99805 h 10.90234 v 7.05859 a 0.62430501,0.62430501 0 0 0 0.625,0.625 0.62430501,0.62430501 0 0 0 0.625,-0.625 v -7.05859 h 3.2168 a 0.62430501,0.62430501 0 0 0 0.625,-0.625 0.62430501,0.62430501 0 0 0 -0.625,-0.62305 h -3.2168 v -14.74219 a 0.62436744,0.62436744 0 0 0 -0.42773,-0.59375 z m -0.82227,2.4668 v 12.86914 h -9.65429 z"
       id="path38" /><path
       style="color:#000000;fill:#000000;stroke-linecap:round;stroke-linejoin:round;stroke-miterlimit:10;-inkscape-stroke:none;opacity:0.15"
       d="m 892.17383,261.88672 a 0.62430501,0.62430501 0 0 0 -0.83789,0.2793 l -3.8418,7.68359 a 0.62430501,0.62430501 0 0 0 0.2793,0.83594 0.62430501,0.62430501 0 0 0 0.83789,-0.2793 l 3.84179,-7.68164 a 0.62430501,0.62430501 0 0 0 -0.27929,-0.83789 z"
       id="path39" /><path
       style="color:#000000;fill:#000000;stroke-linecap:round;stroke-linejoin:round;stroke-miterlimit:10;-inkscape-stroke:none;opacity:0.15"
       d="m 896.01562,261.88672 a 0.62430501,0.62430501 0 0 0 -0.83789,0.2793 l -3.84179,7.68359 a 0.62430501,0.62430501 0 0 0 0.27929,0.83594 0.62430501,0.62430501 0 0 0 0.83789,-0.2793 l 3.8418,-7.68164 a 0.62430501,0.62430501 0 0 0 -0.2793,-0.83789 z"
       id="path40" /><path
       style="color:#000000;fill:#000000;stroke-linecap:round;stroke-linejoin:round;stroke-miterlimit:10;-inkscape-stroke:none;opacity:0.15"
       d="m 926.47266,261.82031 a 0.62430501,0.62430501 0 0 0 -0.625,0.625 0.62430501,0.62430501 0 0 0 0.625,0.62305 h 11.26562 l 3.47656,3.47656 v 14.84961 l -3.47656,3.47656 h -11.26562 a 0.62430501,0.62430501 0 0 0 -0.625,0.62305 0.62430501,0.62430501 0 0 0 0.625,0.625 h 11.52343 a 0.62436744,0.62436744 0 0 0 0.44141,-0.18359 l 3.8418,-3.8418 a 0.62436744,0.62436744 0 0 0 0.18359,-0.44141 v -15.36523 a 0.62436744,0.62436744 0 0 0 -0.18359,-0.44141 l -3.8418,-3.84179 a 0.62436744,0.62436744 0 0 0 -0.44141,-0.1836 z"
       id="path41" /><path
       style="color:#000000;fill:#000000;stroke-linecap:round;stroke-linejoin:round;stroke-miterlimit:10;-inkscape-stroke:none;opacity:0.15"
       d="m 930.31445,261.82031 a 0.62430501,0.62430501 0 0 0 -0.625,0.625 v 23.04883 a 0.62430501,0.62430501 0 0 0 0.625,0.625 0.62430501,0.62430501 0 0 0 0.62305,-0.625 v -23.04883 a 0.62430501,0.62430501 0 0 0 -0.62305,-0.625 z"
       id="path42" /><path
       style="color:#000000;fill:#000000;stroke-linecap:round;stroke-linejoin:round;stroke-miterlimit:10;-inkscape-stroke:none;opacity:0.15"
       d="m 949.52148,261.82031 a 0.62436744,0.62436744 0 0 0 -0.62304,0.625 v 11.52344 11.52539 a 0.62430501,0.62430501 0 0 0 0.62304,0.625 0.62430501,0.62430501 0 0 0 0.625,-0.625 v -10.90039 h 10.90039 a 0.62436744,0.62436744 0 0 0 0.44141,-0.18164 l 3.8418,-3.8418 a 0.62436744,0.62436744 0 0 0 0.18359,-0.4414 v -3.8418 a 0.62436744,0.62436744 0 0 0 -0.18359,-0.44141 l -3.8418,-3.84179 a 0.62436744,0.62436744 0 0 0 -0.44141,-0.1836 z m 0.625,1.24805 h 10.64258 l 3.47656,3.47656 v 3.32422 l -3.47656,3.47656 h -10.64258 z"
       id="path43" /><path
       style="color:#000000;fill:#000000;stroke-linecap:round;stroke-linejoin:round;stroke-miterlimit:10;-inkscape-stroke:none;opacity:0.15"
       d="m 952.92187,273.52734 a 0.62430501,0.62430501 0 0 0 0,0.88477 l 11.5254,11.52344 a 0.62430501,0.62430501 0 0 0 0.88281,0 0.62430501,0.62430501 0 0 0 0,-0.88282 l -11.52539,-11.52539 a 0.62430501,0.62430501 0 0 0 -0.88282,0 z"
       id="path44" /><path
       style="color:#000000;fill:#000000;stroke-linecap:round;stroke-linejoin:round;stroke-miterlimit:10;-inkscape-stroke:none;opacity:0.15"
       d="m 972.57422,284.87109 a 0.62430501,0.62430501 0 0 0 -0.62305,0.62305 0.62430501,0.62430501 0 0 0 0.62305,0.625 h 7.68359 a 0.62430501,0.62430501 0 0 0 0.625,-0.625 0.62430501,0.62430501 0 0 0 -0.625,-0.62305 z"
       id="path45" /><path
       style="color:#000000;fill:#000000;stroke-linecap:round;stroke-linejoin:round;stroke-miterlimit:10;-inkscape-stroke:none;opacity:0.15"
       d="m 976.41602,261.82031 a 0.62430501,0.62430501 0 0 0 -0.625,0.625 v 23.04883 a 0.62430501,0.62430501 0 0 0 0.625,0.625 0.62430501,0.62430501 0 0 0 0.625,-0.625 v -23.04883 a 0.62430501,0.62430501 0 0 0 -0.625,-0.625 z"
       id="path46" /><path
       style="color:#000000;fill:#000000;stroke-linecap:round;stroke-linejoin:round;stroke-miterlimit:10;-inkscape-stroke:none;opacity:0.15"
       d="m 972.57422,261.82031 a 0.62430501,0.62430501 0 0 0 -0.62305,0.625 0.62430501,0.62430501 0 0 0 0.62305,0.62305 h 7.68359 a 0.62430501,0.62430501 0 0 0 0.625,-0.62305 0.62430501,0.62430501 0 0 0 -0.625,-0.625 z"
       id="path47" /><path
       style="color:#000000;fill:#000000;stroke-linecap:round;stroke-linejoin:round;stroke-miterlimit:10;-inkscape-stroke:none;opacity:0.15"
       d="m 987.94141,261.82031 a 0.62430501,0.62430501 0 0 0 -0.625,0.625 v 23.04883 a 0.62436744,0.62436744 0 0 0 0.625,0.625 h 15.36719 a 0.62430501,0.62430501 0 0 0 0.623,-0.625 0.62430501,0.62430501 0 0 0 -0.623,-0.62305 h -14.74219 v -22.42578 a 0.62430501,0.62430501 0 0 0 -0.625,-0.625 z"
       id="path48" /><path
       style="color:#000000;fill:#000000;stroke-linecap:round;stroke-linejoin:round;stroke-miterlimit:10;-inkscape-stroke:none;opacity:0.15"
       d="m 1010.9922,261.82031 a 0.62430501,0.62430501 0 0 0 -0.625,0.625 v 23.04883 a 0.62436744,0.62436744 0 0 0 0.625,0.625 h 15.3691 a 0.62430501,0.62430501 0 0 0 0.6231,-0.625 0.62430501,0.62430501 0 0 0 -0.6231,-0.62305 h -14.7461 v -22.42578 a 0.62430501,0.62430501 0 0 0 -0.623,-0.625 z"
       id="path49" /><path
       style="color:#000000;fill:#000000;stroke-linecap:round;stroke-linejoin:round;stroke-miterlimit:10;-inkscape-stroke:none;opacity:0.15"
       d="m 780.48047,300.23828 a 0.62430501,0.62430501 0 0 0 -0.625,0.62305 v 23.05273 a 0.62430501,0.62430501 0 0 0 0.625,0.625 0.62430501,0.62430501 0 0 0 0.625,-0.625 v -23.05273 a 0.62430501,0.62430501 0 0 0 -0.625,-0.62305 z"
       id="path50" /><path
       style="color:#000000;fill:#000000;stroke-linecap:round;stroke-linejoin:round;stroke-miterlimit:10;-inkscape-stroke:none;opacity:0.15"
       d="m 772.79687,300.23828 a 0.62430501,0.62430501 0 0 0 -0.625,0.62305 0.62430501,0.62430501 0 0 0 0.625,0.625 h 15.36719 a 0.62430501,0.62430501 0 0 0 0.62305,-0.625 0.62430501,0.62430501 0 0 0 -0.62305,-0.62305 z"
       id="path51" /><path
       style="color:#000000;fill:#000000;stroke-linecap:round;stroke-linejoin:round;stroke-miterlimit:10;-inkscape-stroke:none;opacity:0.15"
       d="m 795.84766,300.23828 a 0.62430501,0.62430501 0 0 0 -0.625,0.62305 v 23.05273 a 0.62430501,0.62430501 0 0 0 0.625,0.625 0.62430501,0.62430501 0 0 0 0.62304,-0.625 v -23.05273 a 0.62430501,0.62430501 0 0 0 -0.62304,-0.62305 z"
       id="path52" /><path
       style="color:#000000;fill:#000000;stroke-linecap:round;stroke-linejoin:round;stroke-miterlimit:10;-inkscape-stroke:none;opacity:0.15"
       d="m 795.84766,311.76562 a 0.62430501,0.62430501 0 0 0 -0.625,0.62305 0.62430501,0.62430501 0 0 0 0.625,0.625 h 15.36718 a 0.62430501,0.62430501 0 0 0 0.62305,-0.625 0.62430501,0.62430501 0 0 0 -0.62305,-0.62305 z"
       id="path53" /><path
       style="color:#000000;fill:#000000;stroke-linecap:round;stroke-linejoin:round;stroke-miterlimit:10;-inkscape-stroke:none;opacity:0.15"
       d="m 811.21484,300.23828 a 0.62430501,0.62430501 0 0 0 -0.625,0.62305 v 23.05273 a 0.62430501,0.62430501 0 0 0 0.625,0.625 0.62430501,0.62430501 0 0 0 0.62305,-0.625 v -23.05273 a 0.62430501,0.62430501 0 0 0 -0.62305,-0.62305 z"
       id="path54" /><path
       style="color:#000000;fill:#000000;stroke-linecap:round;stroke-linejoin:round;stroke-miterlimit:10;-inkscape-stroke:none;opacity:0.15"
       d="m 818.90039,300.23828 a 0.62436744,0.62436744 0 0 0 -0.625,0.62305 v 11.52734 11.52539 a 0.62430501,0.62430501 0 0 0 0.625,0.625 0.62430501,0.62430501 0 0 0 0.62305,-0.625 v -10.90039 h 10.90039 a 0.62436744,0.62436744 0 0 0 0.4414,-0.18359 l 3.8418,-3.8418 a 0.62436744,0.62436744 0 0 0 0.18359,-0.44141 v -3.84179 a 0.62436744,0.62436744 0 0 0 -0.18359,-0.44141 l -3.83984,-3.84375 a 0.62436744,0.62436744 0 0 0 -0.44336,-0.18164 z m 0.62305,1.24805 h 10.64258 l 3.47656,3.47851 v 3.32422 l -3.47656,3.47656 h -10.64258 z"
       id="path55" /><path
       style="color:#000000;fill:#000000;stroke-linecap:round;stroke-linejoin:round;stroke-miterlimit:10;-inkscape-stroke:none;opacity:0.15"
       d="m 822.74219,311.76562 a 0.62430501,0.62430501 0 0 0 -0.44336,0.18165 0.62430501,0.62430501 0 0 0 0,0.88281 l 11.52539,11.52539 a 0.62430501,0.62430501 0 0 0 0.88281,0 0.62430501,0.62430501 0 0 0 0,-0.88281 l -11.52344,-11.52539 a 0.62430501,0.62430501 0 0 0 -0.4414,-0.18165 z"
       id="path56" /><path
       style="color:#000000;fill:#000000;stroke-linecap:round;stroke-linejoin:round;stroke-miterlimit:10;-inkscape-stroke:none;opacity:0.15"
       d="m 841.94922,300.23828 a 0.62430501,0.62430501 0 0 0 -0.62305,0.62305 v 19.21094 a 0.62436744,0.62436744 0 0 0 0.18164,0.4414 l 3.8418,3.8418 a 0.62436744,0.62436744 0 0 0 0.44141,0.18359 h 7.68359 a 0.62436744,0.62436744 0 0 0 0.44141,-0.18359 l 3.84179,-3.8418 a 0.62436744,0.62436744 0 0 0 0.1836,-0.4414 v -19.21094 a 0.62430501,0.62430501 0 0 0 -0.625,-0.62305 0.62430501,0.62430501 0 0 0 -0.625,0.62305 v 18.95312 l -3.47461,3.47461 h -7.16602 l -3.47656,-3.47461 v -18.95312 a 0.62430501,0.62430501 0 0 0 -0.625,-0.62305 z"
       id="path57" /><g
       id="path58"
       style="opacity:0.15"><path
         style="color:#000000;fill:#000000;stroke-linecap:round;stroke-linejoin:round;stroke-miterlimit:10;-inkscape-stroke:none"
         d="m 536.28495,392.40749 -7.14006,9.66877 3.6176,-11.46171 z"
         id="path141" /><path
         style="color:#000000;fill:#000000;stroke-linecap:round;stroke-linejoin:round;stroke-miterlimit:10;-inkscape-stroke:none"
         d="m 532.7207,390.51758 a 0.10572657,0.10572657 0 0 0 -0.0586,0.0644 l -3.61719,11.46289 a 0.10572657,0.10572657 0 0 0 0.18555,0.0937 l 7.13867,-9.66797 a 0.10572657,0.10572657 0 0 0 -0.0371,-0.1582 l -3.52148,-1.79297 a 0.10572657,0.10572657 0 0 0 -0.0899,-0.002 z m 0.10547,0.24804 3.29883,1.67969 -6.68945,9.0586 z"
         id="path142" /></g><path
       style="color:#000000;fill:#000000;stroke-linecap:round;stroke-linejoin:round;stroke-miterlimit:10;-inkscape-stroke:none;opacity:0.15"
       d="m 705.05273,297.4375 -126.66015,7.24023 a 0.62436744,0.62436744 0 0 0 -0.52149,0.33985 l -43.90429,86.21289 a 0.62430501,0.62430501 0 0 0 0.27343,0.83984 0.62430501,0.62430501 0 0 0 0.83985,-0.27344 l 43.74023,-85.89257 126.30274,-7.22071 a 0.62430501,0.62430501 0 0 0 0.58789,-0.6582 0.62430501,0.62430501 0 0 0 -0.65821,-0.58789 z"
       id="path59" /><path
       style="color:#000000;fill:#000000;stroke-linecap:round;stroke-linejoin:round;stroke-miterlimit:10;-inkscape-stroke:none;opacity:0.15"
       d="m 172.34375,336.10547 a 0.62430501,0.62430501 0 0 0 -0.63086,0.61719 0.62430501,0.62430501 0 0 0 0.61719,0.63086 l 6.58594,0.0645 a 0.62430501,0.62430501 0 0 0 0.63085,-0.61719 0.62430501,0.62430501 0 0 0 -0.61718,-0.63086 z"
       id="path60" /><path
       style="color:#000000;fill:#000000;stroke-linecap:round;stroke-linejoin:round;stroke-miterlimit:10;-inkscape-stroke:none;opacity:0.15"
       d="m 178.91602,517.15625 -6.58594,0.0644 a 0.62430501,0.62430501 0 0 0 -0.61719,0.63086 0.62430501,0.62430501 0 0 0 0.63086,0.61914 l 6.58594,-0.0664 a 0.62430501,0.62430501 0 0 0 0.61718,-0.63086 0.62430501,0.62430501 0 0 0 -0.63085,-0.61719 z"
       id="path61" /><path
       style="color:#000000;fill:#000000;stroke-linecap:round;stroke-linejoin:round;stroke-miterlimit:10;-inkscape-stroke:none;opacity:0.15"
       d="m 80.1875,426.66406 a 0.62430501,0.62430501 0 0 0 -0.623047,0.62305 0.62430501,0.62430501 0 0 0 0.623047,0.625 h 60.91797 a 0.62430501,0.62430501 0 0 0 0.625,-0.625 0.62430501,0.62430501 0 0 0 -0.625,-0.62305 z"
       id="path62" /><path
       style="color:#000000;fill:#000000;stroke-linecap:round;stroke-linejoin:round;stroke-miterlimit:10;-inkscape-stroke:none;opacity:0.15"
       d="m 157.57031,426.66406 a 0.62430501,0.62430501 0 0 0 -0.625,0.62305 0.62430501,0.62430501 0 0 0 0.625,0.625 h 16.4668 a 0.62430501,0.62430501 0 0 0 0.62305,-0.625 0.62430501,0.62430501 0 0 0 -0.62305,-0.62305 z"
       id="path63" /><path
       style="color:#000000;fill:#000000;stroke-linecap:round;stroke-linejoin:round;stroke-miterlimit:10;-inkscape-stroke:none;opacity:0.15"
       d="m 190.5,426.66406 a 0.62430501,0.62430501 0 0 0 -0.62305,0.62305 0.62430501,0.62430501 0 0 0 0.62305,0.625 h 60.91797 a 0.62430501,0.62430501 0 0 0 0.625,-0.625 0.62430501,0.62430501 0 0 0 -0.625,-0.62305 z"
       id="path64" /><path
       style="color:#000000;fill:#000000;stroke-linecap:round;stroke-linejoin:round;stroke-miterlimit:10;-inkscape-stroke:none;opacity:0.15"
       d="m 147.63867,401.45117 a 0.62430501,0.62430501 0 0 0 -0.62305,0.625 0.62430501,0.62430501 0 0 0 0.62305,0.625 h 31.28516 a 0.62430501,0.62430501 0 0 0 0.62304,-0.625 0.62430501,0.62430501 0 0 0 -0.62304,-0.625 z"
       id="path65" /><path
       style="color:#000000;fill:#000000;stroke-linecap:round;stroke-linejoin:round;stroke-miterlimit:10;-inkscape-stroke:none;opacity:0.15"
       d="m 147.63867,451.875 a 0.62430501,0.62430501 0 0 0 -0.62305,0.62305 0.62430501,0.62430501 0 0 0 0.62305,0.625 h 31.28516 a 0.62430501,0.62430501 0 0 0 0.62304,-0.625 0.62430501,0.62430501 0 0 0 -0.62304,-0.62305 z"
       id="path66" /><path
       style="color:#000000;fill:#000000;stroke-linecap:round;stroke-linejoin:round;stroke-miterlimit:10;-inkscape-stroke:none;opacity:0.15"
       d="m 333.90625,426.66406 a 0.62430501,0.62430501 0 0 0 -0.62305,0.62305 0.62430501,0.62430501 0 0 0 0.62305,0.625 h 58.61133 a 0.62430501,0.62430501 0 0 0 0.625,-0.625 0.62430501,0.62430501 0 0 0 -0.625,-0.62305 z"
       id="path67" /><path
       style="color:#000000;fill:#000000;stroke-linecap:round;stroke-linejoin:round;stroke-miterlimit:10;-inkscape-stroke:none;opacity:0.15"
       d="m 408.98242,426.66406 a 0.62430501,0.62430501 0 0 0 -0.625,0.62305 0.62430501,0.62430501 0 0 0 0.625,0.625 h 16.46485 a 0.62430501,0.62430501 0 0 0 0.625,-0.625 0.62430501,0.62430501 0 0 0 -0.625,-0.62305 z"
       id="path68" /><path
       style="color:#000000;fill:#000000;stroke-linecap:round;stroke-linejoin:round;stroke-miterlimit:10;-inkscape-stroke:none;opacity:0.15"
       d="m 441.91211,426.66406 a 0.62430501,0.62430501 0 0 0 -0.625,0.62305 0.62430501,0.62430501 0 0 0 0.625,0.625 h 82.32812 a 0.62430501,0.62430501 0 0 0 0.62305,-0.625 0.62430501,0.62430501 0 0 0 -0.62305,-0.62305 z"
       id="path69" /><path
       style="color:#000000;fill:#000000;stroke-linecap:round;stroke-linejoin:round;stroke-miterlimit:10;-inkscape-stroke:none;opacity:0.15"
       d="m 540.70312,426.66406 a 0.62430501,0.62430501 0 0 0 -0.62304,0.62305 0.62430501,0.62430501 0 0 0 0.62304,0.625 h 16.4668 a 0.62430501,0.62430501 0 0 0 0.625,-0.625 0.62430501,0.62430501 0 0 0 -0.625,-0.62305 z"
       id="path70" /><path
       style="color:#000000;fill:#000000;stroke-linecap:round;stroke-linejoin:round;stroke-miterlimit:10;-inkscape-stroke:none;opacity:0.15"
       d="m 573.63477,426.66406 a 0.62430501,0.62430501 0 0 0 -0.625,0.62305 0.62430501,0.62430501 0 0 0 0.625,0.625 h 82.32421 a 0.62430501,0.62430501 0 0 0 0.625,-0.625 0.62430501,0.62430501 0 0 0 -0.625,-0.62305 z"
       id="path71" /><path
       style="color:#000000;fill:#000000;stroke-linecap:round;stroke-linejoin:round;stroke-miterlimit:10;-inkscape-stroke:none;opacity:0.15"
       d="m 672.42578,426.66406 a 0.62430501,0.62430501 0 0 0 -0.625,0.62305 0.62430501,0.62430501 0 0 0 0.625,0.625 h 16.46484 a 0.62430501,0.62430501 0 0 0 0.62305,-0.625 0.62430501,0.62430501 0 0 0 -0.62305,-0.62305 z"
       id="path72" /><path
       style="color:#000000;fill:#000000;stroke-linecap:round;stroke-linejoin:round;stroke-miterlimit:10;-inkscape-stroke:none;opacity:0.15"
       d="m 705.35547,426.66406 a 0.62430501,0.62430501 0 0 0 -0.62305,0.62305 0.62430501,0.62430501 0 0 0 0.62305,0.625 h 58.61133 a 0.62430501,0.62430501 0 0 0 0.625,-0.625 0.62430501,0.62430501 0 0 0 -0.625,-0.62305 z"
       id="path73" /><path
       style="color:#000000;fill:#000000;stroke-linecap:round;stroke-linejoin:round;stroke-miterlimit:10;-inkscape-stroke:none;opacity:0.15"
       d="m 178.92383,401.45117 a 0.62430501,0.62430501 0 0 0 -0.625,0.625 0.62430501,0.62430501 0 0 0 0.625,0.625 h 246.75195 a 0.62430501,0.62430501 0 0 0 0.625,-0.625 0.62430501,0.62430501 0 0 0 -0.625,-0.625 z"
       id="path74" /><path
       style="color:#000000;fill:#000000;stroke-linecap:round;stroke-linejoin:round;stroke-miterlimit:10;-inkscape-stroke:none;opacity:0.15"
       d="m 529.14258,510.02148 a 0.62430501,0.62430501 0 0 0 -0.625,0.625 v 82.18555 a 0.62430501,0.62430501 0 0 0 0.625,0.625 0.62430501,0.62430501 0 0 0 0.625,-0.625 v -82.18555 a 0.62430501,0.62430501 0 0 0 -0.625,-0.625 z"
       id="path75" /><path
       style="color:#000000;fill:#000000;stroke-linecap:round;stroke-linejoin:round;stroke-miterlimit:10;-inkscape-stroke:none;opacity:0.15"
       d="m 529.14258,477.0918 a 0.62430501,0.62430501 0 0 0 -0.625,0.625 v 16.46289 a 0.62430501,0.62430501 0 0 0 0.625,0.625 0.62430501,0.62430501 0 0 0 0.625,-0.625 V 477.7168 a 0.62430501,0.62430501 0 0 0 -0.625,-0.625 z"
       id="path76" /><path
       style="color:#000000;fill:#000000;stroke-linecap:round;stroke-linejoin:round;stroke-miterlimit:10;-inkscape-stroke:none;opacity:0.15"
       d="m 529.14258,378.30078 a 0.62430501,0.62430501 0 0 0 -0.625,0.62305 v 82.32812 a 0.62430501,0.62430501 0 0 0 0.625,0.625 0.62430501,0.62430501 0 0 0 0.625,-0.625 v -82.32812 a 0.62430501,0.62430501 0 0 0 -0.625,-0.62305 z"
       id="path77" /><path
       style="color:#000000;fill:#000000;stroke-linecap:round;stroke-linejoin:round;stroke-miterlimit:10;-inkscape-stroke:none;opacity:0.15"
       d="m 529.14258,345.36914 a 0.62430501,0.62430501 0 0 0 -0.625,0.625 v 16.4668 a 0.62430501,0.62430501 0 0 0 0.625,0.62304 0.62430501,0.62430501 0 0 0 0.625,-0.62304 v -16.4668 a 0.62430501,0.62430501 0 0 0 -0.625,-0.625 z"
       id="path78" /><path
       style="color:#000000;fill:#000000;stroke-linecap:round;stroke-linejoin:round;stroke-miterlimit:10;-inkscape-stroke:none;opacity:0.15"
       d="m 529.14453,401.45117 c -14.26129,0 -25.83594,11.57464 -25.83594,25.83594 0,14.26063 11.57465,25.83594 25.83594,25.83594 14.26132,0 25.83594,-11.57464 25.83594,-25.83594 0,-14.2613 -11.57462,-25.83594 -25.83594,-25.83594 z m 0,1.24805 c 13.58652,0 24.58789,11.00139 24.58789,24.58789 0,13.58651 -11.00137,24.58594 -24.58789,24.58594 -13.5865,0 -24.58594,-11.00008 -24.58594,-24.58594 a 0.62430501,0.62430501 0 0 0 -0.002,-0.006 c 0.003,-13.58375 11.00338,-24.58203 24.58789,-24.58203 z"
       id="path79" /><path
       style="color:#000000;fill:#000000;stroke-linecap:round;stroke-linejoin:round;stroke-miterlimit:10;-inkscape-stroke:none;opacity:0.15"
       d="m 529.14453,336.16992 c -50.31505,0 -91.11719,40.80213 -91.11719,91.11719 0,50.31439 40.80214,91.11719 91.11719,91.11719 50.31505,0 91.11719,-40.80214 91.11719,-91.11719 0,-50.31506 -40.80214,-91.11719 -91.11719,-91.11719 z m 0,1.24805 c 49.64025,0 89.86914,40.22888 89.86914,89.86914 0,49.64025 -40.22889,89.86719 -89.86914,89.86719 -49.64025,0 -89.86719,-40.2276 -89.86719,-89.86719 a 0.62430501,0.62430501 0 0 0 -0.002,-0.008 c 0.004,-49.63664 40.23152,-89.86133 89.86914,-89.86133 z"
       id="path80" /><path
       style="color:#000000;fill:#000000;stroke-linecap:round;stroke-linejoin:round;stroke-miterlimit:10;-inkscape-stroke:none;opacity:0.15"
       d="m 529.14453,270.24414 c -86.72525,0 -157.04297,70.3177 -157.04297,157.04297 0,86.7246 70.31772,157.04297 157.04297,157.04297 86.72527,0 157.04297,-70.31771 157.04297,-157.04297 0,-86.72527 -70.3177,-157.04297 -157.04297,-157.04297 z m 0,1.24805 c 86.05048,0 155.79492,69.74444 155.79492,155.79492 0,86.05046 -69.74444,155.79492 -155.79492,155.79492 -86.05045,0 -155.79492,-69.74512 -155.79492,-155.79492 0,-86.05048 69.74447,-155.79492 155.79492,-155.79492 z"
       id="path81" /><path
       style="color:#000000;fill:#000000;stroke-linecap:round;stroke-linejoin:round;stroke-miterlimit:10;-inkscape-stroke:none;opacity:0.15"
       d="m 529.14258,246.7207 a 0.62430501,0.62430501 0 0 0 -0.625,0.62305 v 82.18555 a 0.62430501,0.62430501 0 0 0 0.625,0.625 0.62430501,0.62430501 0 0 0 0.625,-0.625 v -82.18555 a 0.62430501,0.62430501 0 0 0 -0.625,-0.62305 z"
       id="path82" /><path
       style="color:#000000;fill:#000000;stroke-linecap:round;stroke-linejoin:round;stroke-miterlimit:10;-inkscape-stroke:none;opacity:0.15"
       d="m 178.92383,144.24023 a 0.62430501,0.62430501 0 0 0 -0.625,0.625 v 187.8125 a 0.62430501,0.62430501 0 0 0 0.625,0.625 0.62430501,0.62430501 0 0 0 0.62304,-0.625 v -187.8125 a 0.62430501,0.62430501 0 0 0 -0.62304,-0.625 z"
       id="path83" /><path
       style="color:#000000;fill:#000000;stroke-linecap:round;stroke-linejoin:round;stroke-miterlimit:10;-inkscape-stroke:none;opacity:0.15"
       d="m 147.63867,144.24023 a 0.62430501,0.62430501 0 0 0 -0.62305,0.625 v 121.88672 a 0.62430501,0.62430501 0 0 0 0.62305,0.62305 0.62430501,0.62430501 0 0 0 0.625,-0.62305 V 144.86523 a 0.62430501,0.62430501 0 0 0 -0.625,-0.625 z"
       id="path84" /><path
       style="color:#000000;fill:#000000;stroke-linecap:round;stroke-linejoin:round;stroke-miterlimit:10;-inkscape-stroke:none;opacity:0.15"
       d="m 123.92969,156.0957 a 0.62430501,0.62430501 0 0 0 -0.625,0.625 0.62430501,0.62430501 0 0 0 0.625,0.62305 h 11.85547 a 0.62430501,0.62430501 0 0 0 0.62304,-0.62305 0.62430501,0.62430501 0 0 0 -0.62304,-0.625 z"
       id="path85" /><path
       style="color:#000000;fill:#000000;stroke-linecap:round;stroke-linejoin:round;stroke-miterlimit:10;-inkscape-stroke:none;opacity:0.15"
       d="m 190.77734,156.0957 a 0.62430501,0.62430501 0 0 0 -0.62304,0.625 0.62430501,0.62430501 0 0 0 0.62304,0.62305 h 11.85547 a 0.62430501,0.62430501 0 0 0 0.625,-0.62305 0.62430501,0.62430501 0 0 0 -0.625,-0.625 z"
       id="path86" /><g
       id="path87"
       style="opacity:0.15"><path
         style="color:#000000;fill:#000000;stroke-linecap:round;stroke-linejoin:round;stroke-miterlimit:10;-inkscape-stroke:none"
         d="m 190.77996,154.74331 -11.85497,1.97478 11.85497,1.97688 z"
         id="path139" /><path
         style="color:#000000;fill:#000000;stroke-linecap:round;stroke-linejoin:round;stroke-miterlimit:10;-inkscape-stroke:none"
         d="m 190.76172,154.63867 -11.85352,1.97461 a 0.10572657,0.10572657 0 0 0 0,0.20899 l 11.85352,1.97656 a 0.10572657,0.10572657 0 0 0 0.12305,-0.10352 v -3.95117 a 0.10572657,0.10572657 0 0 0 -0.12305,-0.10547 z m -0.0879,0.22852 v 3.70117 l -11.10547,-1.84961 z"
         id="path140" /></g><g
       id="path88"
       style="opacity:0.15"><path
         style="color:#000000;fill:#000000;stroke-linecap:round;stroke-linejoin:round;stroke-miterlimit:10;-inkscape-stroke:none"
         d="m 135.78655,158.69497 11.85499,-1.97688 -11.85499,-1.97478 z"
         id="path137" /><path
         style="color:#000000;fill:#000000;stroke-linecap:round;stroke-linejoin:round;stroke-miterlimit:10;-inkscape-stroke:none"
         d="m 135.80469,154.63867 a 0.10572657,0.10572657 0 0 0 -0.12305,0.10547 v 3.95117 a 0.10572657,0.10572657 0 0 0 0.12305,0.10352 l 11.85351,-1.97656 a 0.10572657,0.10572657 0 0 0 0,-0.20899 z m 0.0879,0.22852 11.10547,1.85156 -11.10547,1.84961 z"
         id="path138" /></g><path
       style="color:#000000;fill:#000000;stroke-linecap:round;stroke-linejoin:round;stroke-miterlimit:10;-inkscape-stroke:none;opacity:0.15"
       d="m 33.480469,144.57031 a 0.62436744,0.62436744 0 0 0 -0.441407,0.1836 l -3.841796,3.84179 a 0.62436744,0.62436744 0 0 0 -0.181641,0.44141 v 15.36719 a 0.62436744,0.62436744 0 0 0 0.181641,0.4414 l 3.841796,3.8418 a 0.62436744,0.62436744 0 0 0 0.441407,0.18164 h 3.841797 a 0.62436744,0.62436744 0 0 0 0.441406,-0.18164 l 3.841797,-3.8418 a 0.62436744,0.62436744 0 0 0 0.183593,-0.4414 v -15.36719 a 0.62436744,0.62436744 0 0 0 -0.183593,-0.44141 l -3.841797,-3.84179 a 0.62436744,0.62436744 0 0 0 -0.441406,-0.1836 z m 0.259765,1.25 h 3.324219 l 3.476563,3.47461 v 14.84961 l -3.476563,3.47656 h -3.326172 l -3.474609,-3.47656 v -14.84961 z"
       id="path89" /><path
       style="color:#000000;fill:#000000;stroke-linecap:round;stroke-linejoin:round;stroke-miterlimit:10;-inkscape-stroke:none;opacity:0.15"
       d="m 48.847656,163.7793 a 0.62430501,0.62430501 0 0 0 -0.625,0.625 v 3.84179 a 0.62430501,0.62430501 0 0 0 0.625,0.62305 0.62430501,0.62430501 0 0 0 0.625,-0.62305 v -3.84179 a 0.62430501,0.62430501 0 0 0 -0.625,-0.625 z"
       id="path90" /><path
       style="color:#000000;fill:#000000;stroke-linecap:round;stroke-linejoin:round;stroke-miterlimit:10;-inkscape-stroke:none;opacity:0.15"
       d="m 68.255859,144.60352 a 0.62436744,0.62436744 0 0 0 -0.697265,0.21679 L 56.033203,160.1875 a 0.62436744,0.62436744 0 0 0 0.5,0.99805 h 10.900391 v 7.06054 a 0.62430501,0.62430501 0 0 0 0.625,0.62305 0.62430501,0.62430501 0 0 0 0.625,-0.62305 v -7.06054 h 3.216797 a 0.62430501,0.62430501 0 0 0 0.625,-0.62305 0.62430501,0.62430501 0 0 0 -0.625,-0.625 h -3.216797 v -14.74219 a 0.62436744,0.62436744 0 0 0 -0.427735,-0.59179 z m -0.822265,2.46679 V 159.9375 H 57.78125 Z"
       id="path91" /><path
       style="color:#000000;fill:#000000;stroke-linecap:round;stroke-linejoin:round;stroke-miterlimit:10;-inkscape-stroke:none;opacity:0.15"
       d="m 79.583984,144.57031 a 0.62430501,0.62430501 0 0 0 -0.625,0.625 0.62430501,0.62430501 0 0 0 0.625,0.625 H 93.941406 L 82.867187,167.9668 a 0.62430501,0.62430501 0 0 0 0.279297,0.83789 0.62430501,0.62430501 0 0 0 0.837891,-0.2793 l 11.525391,-23.05078 a 0.62436744,0.62436744 0 0 0 -0.558594,-0.9043 z"
       id="path92" /><path
       style="color:#000000;fill:#000000;stroke-linecap:round;stroke-linejoin:round;stroke-miterlimit:10;-inkscape-stroke:none;opacity:0.15"
       d="m 102.63672,144.57031 a 0.62436744,0.62436744 0 0 0 -0.625,0.625 v 7.6836 a 0.62436744,0.62436744 0 0 0 0.625,0.62304 h 11.26562 l 3.47657,3.47657 v 7.16601 l -3.47657,3.47656 h -7.16601 l -3.6582,-3.6582 a 0.62430501,0.62430501 0 0 0 -0.88282,0 0.62430501,0.62430501 0 0 0 0,0.88281 l 3.8418,3.8418 a 0.62436744,0.62436744 0 0 0 0.44141,0.18164 h 7.68359 a 0.62436744,0.62436744 0 0 0 0.44141,-0.18164 l 3.84179,-3.8418 a 0.62436744,0.62436744 0 0 0 0.18164,-0.4414 v -7.6836 a 0.62436744,0.62436744 0 0 0 -0.18164,-0.4414 l -3.84179,-3.8418 a 0.62436744,0.62436744 0 0 0 -0.44141,-0.18359 h -10.90234 v -6.4336 h 14.74414 a 0.62430501,0.62430501 0 0 0 0.62304,-0.625 0.62430501,0.62430501 0 0 0 -0.62304,-0.625 z"
       id="path93" /><path
       style="color:#000000;fill:#000000;stroke-linecap:round;stroke-linejoin:round;stroke-miterlimit:10;-inkscape-stroke:none;opacity:0.15"
       d="m 172.33594,202.29102 a 0.62430501,0.62430501 0 0 0 -0.62305,0.625 v 63.83593 a 0.62430501,0.62430501 0 0 0 0.62305,0.62305 0.62430501,0.62430501 0 0 0 0.625,-0.62305 v -63.83593 a 0.62430501,0.62430501 0 0 0 -0.625,-0.625 z"
       id="path94" /><path
       style="color:#000000;fill:#000000;stroke-linecap:round;stroke-linejoin:round;stroke-miterlimit:10;-inkscape-stroke:none;opacity:0.15"
       d="m 123.92969,214.14648 a 0.62430501,0.62430501 0 0 0 -0.625,0.625 0.62430501,0.62430501 0 0 0 0.625,0.62305 h 11.85547 a 0.62430501,0.62430501 0 0 0 0.62304,-0.62305 0.62430501,0.62430501 0 0 0 -0.62304,-0.625 z"
       id="path96" /><path
       style="color:#000000;fill:#000000;stroke-linecap:round;stroke-linejoin:round;stroke-miterlimit:10;-inkscape-stroke:none;opacity:0.15"
       d="m 184.19141,214.14648 a 0.62430501,0.62430501 0 0 0 -0.62305,0.625 0.62430501,0.62430501 0 0 0 0.62305,0.62305 h 11.85546 a 0.62430501,0.62430501 0 0 0 0.625,-0.62305 0.62430501,0.62430501 0 0 0 -0.625,-0.625 z"
       id="path97" /><g
       id="path98"
       style="opacity:0.15"><path
         style="color:#000000;fill:#000000;stroke-linecap:round;stroke-linejoin:round;stroke-miterlimit:10;-inkscape-stroke:none"
         d="m 184.19387,212.79404 -11.85499,1.97688 11.85499,1.97477 z"
         id="path135" /><path
         style="color:#000000;fill:#000000;stroke-linecap:round;stroke-linejoin:round;stroke-miterlimit:10;-inkscape-stroke:none"
         d="m 184.17578,212.68945 -11.85351,1.97657 a 0.10572657,0.10572657 0 0 0 0,0.20898 l 11.85351,1.97461 a 0.10572657,0.10572657 0 0 0 0.12305,-0.10352 v -3.95117 a 0.10572657,0.10572657 0 0 0 -0.12305,-0.10547 z m -0.0879,0.23047 v 3.70117 l -11.10547,-1.85156 z"
         id="path136" /></g><g
       id="path99"
       style="opacity:0.15"><path
         style="color:#000000;fill:#000000;stroke-linecap:round;stroke-linejoin:round;stroke-miterlimit:10;-inkscape-stroke:none"
         d="m 135.78655,216.74569 11.85499,-1.97477 -11.85499,-1.97688 z"
         id="path133" /><path
         style="color:#000000;fill:#000000;stroke-linecap:round;stroke-linejoin:round;stroke-miterlimit:10;-inkscape-stroke:none"
         d="m 135.80469,212.68945 a 0.10572657,0.10572657 0 0 0 -0.12305,0.10547 v 3.95117 a 0.10572657,0.10572657 0 0 0 0.12305,0.10352 L 147.6582,214.875 a 0.10572657,0.10572657 0 0 0 0,-0.20898 z m 0.0879,0.23047 11.10547,1.84961 -11.10547,1.85156 z"
         id="path134" /></g><path
       style="color:#000000;fill:#000000;stroke-linecap:round;stroke-linejoin:round;stroke-miterlimit:10;-inkscape-stroke:none;opacity:0.15"
       d="m 33.480469,202.62109 a 0.62436744,0.62436744 0 0 0 -0.441407,0.1836 l -3.841796,3.84179 a 0.62436744,0.62436744 0 0 0 -0.181641,0.44141 v 15.36719 a 0.62436744,0.62436744 0 0 0 0.181641,0.4414 l 3.841796,3.8418 a 0.62436744,0.62436744 0 0 0 0.441407,0.18164 h 3.841797 a 0.62436744,0.62436744 0 0 0 0.441406,-0.18164 l 3.841797,-3.8418 a 0.62436744,0.62436744 0 0 0 0.183593,-0.4414 v -15.36719 a 0.62436744,0.62436744 0 0 0 -0.183593,-0.44141 l -3.841797,-3.84179 a 0.62436744,0.62436744 0 0 0 -0.441406,-0.1836 z m 0.259765,1.24805 h 3.324219 l 3.476563,3.47656 v 14.84961 l -3.476563,3.47656 h -3.326172 l -3.474609,-3.47656 V 207.3457 Z"
       id="path100" /><path
       style="color:#000000;fill:#000000;stroke-linecap:round;stroke-linejoin:round;stroke-miterlimit:10;-inkscape-stroke:none;opacity:0.15"
       d="m 48.847656,221.83008 a 0.62430501,0.62430501 0 0 0 -0.625,0.625 v 3.84179 a 0.62430501,0.62430501 0 0 0 0.625,0.62305 0.62430501,0.62430501 0 0 0 0.625,-0.62305 v -3.84179 a 0.62430501,0.62430501 0 0 0 -0.625,-0.625 z"
       id="path101" /><path
       style="color:#000000;fill:#000000;stroke-linecap:round;stroke-linejoin:round;stroke-miterlimit:10;-inkscape-stroke:none;opacity:0.15"
       d="m 64.216797,214.14648 a 0.62430501,0.62430501 0 0 0 -0.625,0.625 0.62430501,0.62430501 0 0 0 0.625,0.62305 h 3.583984 l 3.47461,3.47656 v 3.32422 l -3.47461,3.47656 h -7.167969 l -3.658203,-3.6582 a 0.62430501,0.62430501 0 0 0 -0.882812,0 0.62430501,0.62430501 0 0 0 0,0.88281 l 3.841797,3.8418 a 0.62436744,0.62436744 0 0 0 0.441406,0.18164 h 7.683594 A 0.62436744,0.62436744 0 0 0 68.5,226.73828 l 3.841797,-3.8418 a 0.62436744,0.62436744 0 0 0 0.183594,-0.4414 v -3.8418 a 0.62436744,0.62436744 0 0 0 -0.183594,-0.44141 L 68.5,214.33008 a 0.62436744,0.62436744 0 0 0 -0.441406,-0.1836 z"
       id="path102" /><path
       style="color:#000000;fill:#000000;stroke-linecap:round;stroke-linejoin:round;stroke-miterlimit:10;-inkscape-stroke:none;opacity:0.15"
       d="m 60.375,202.62109 a 0.62436744,0.62436744 0 0 0 -0.441406,0.1836 l -3.841797,3.84179 a 0.62430501,0.62430501 0 0 0 0,0.88282 0.62430501,0.62430501 0 0 0 0.882812,0 l 3.658203,-3.66016 h 7.167969 l 3.47461,3.47656 v 3.32422 l -3.658204,3.66016 a 0.62430501,0.62430501 0 0 0 0,0.88281 0.62430501,0.62430501 0 0 0 0.882813,0 l 3.841797,-3.8418 a 0.62436744,0.62436744 0 0 0 0.183594,-0.4414 v -3.8418 a 0.62436744,0.62436744 0 0 0 -0.183594,-0.44141 L 68.5,202.80469 a 0.62436744,0.62436744 0 0 0 -0.441406,-0.1836 z"
       id="path103" /><path
       style="color:#000000;fill:#000000;stroke-linecap:round;stroke-linejoin:round;stroke-miterlimit:10;-inkscape-stroke:none;opacity:0.15"
       d="m 79.583984,202.62109 a 0.62430501,0.62430501 0 0 0 -0.625,0.625 0.62430501,0.62430501 0 0 0 0.625,0.62305 h 14.357422 l -11.074219,22.14844 a 0.62430501,0.62430501 0 0 0 0.279297,0.83594 0.62430501,0.62430501 0 0 0 0.837891,-0.27735 l 11.525391,-23.05078 a 0.62436744,0.62436744 0 0 0 -0.558594,-0.9043 z"
       id="path104" /><path
       style="color:#000000;fill:#000000;stroke-linecap:round;stroke-linejoin:round;stroke-miterlimit:10;-inkscape-stroke:none;opacity:0.15"
       d="m 102.63672,202.62109 a 0.62436744,0.62436744 0 0 0 -0.625,0.625 v 7.6836 a 0.62436744,0.62436744 0 0 0 0.625,0.62304 h 11.26562 l 3.47657,3.47657 v 7.16601 l -3.47657,3.47656 h -7.16601 l -3.6582,-3.6582 a 0.62430501,0.62430501 0 0 0 -0.88282,0 0.62430501,0.62430501 0 0 0 0,0.88281 l 3.8418,3.8418 a 0.62436744,0.62436744 0 0 0 0.44141,0.18164 h 7.68359 a 0.62436744,0.62436744 0 0 0 0.44141,-0.18164 l 3.84179,-3.8418 a 0.62436744,0.62436744 0 0 0 0.18164,-0.4414 v -7.6836 a 0.62436744,0.62436744 0 0 0 -0.18164,-0.4414 l -3.84179,-3.8418 a 0.62436744,0.62436744 0 0 0 -0.44141,-0.18359 h -10.90234 v -6.43555 h 14.74414 a 0.62430501,0.62430501 0 0 0 0.62304,-0.62305 0.62430501,0.62430501 0 0 0 -0.62304,-0.625 z"
       id="path105" /><path
       style="color:#000000;fill:#000000;stroke-linecap:round;stroke-linejoin:round;stroke-miterlimit:10;-inkscape-stroke:none;opacity:0.15"
       d="m 428.35352,205.60742 a 0.62430501,0.62430501 0 0 0 -0.625,0.62305 0.62430501,0.62430501 0 0 0 0.625,0.625 h 11.43359 l 25.9707,64.55273 a 0.62430501,0.62430501 0 0 0 0.8125,0.34571 0.62430501,0.62430501 0 0 0 0.34571,-0.8125 l -26.12891,-64.94336 a 0.62436744,0.62436744 0 0 0 -0.57813,-0.39063 z"
       id="path106" /><path
       style="color:#000000;fill:#000000;stroke-linecap:round;stroke-linejoin:round;stroke-miterlimit:10;-inkscape-stroke:none;opacity:0.15"
       d="m 314.85547,197.92383 a 0.62436744,0.62436744 0 0 0 -0.44336,0.18164 l -3.83984,3.8418 a 0.62436744,0.62436744 0 0 0 -0.1836,0.4414 v 7.6836 a 0.62436744,0.62436744 0 0 0 0.1836,0.4414 l 3.83984,3.8418 a 0.62436744,0.62436744 0 0 0 0.44336,0.18359 h 7.68164 a 0.62436744,0.62436744 0 0 0 0.44141,-0.18359 l 3.84179,-3.8418 a 0.62436744,0.62436744 0 0 0 0.1836,-0.4414 v -7.6836 a 0.62436744,0.62436744 0 0 0 -0.1836,-0.4414 l -3.84179,-3.8418 a 0.62436744,0.62436744 0 0 0 -0.44141,-0.18164 z m 0.25781,1.24804 h 7.16602 l 3.47656,3.47657 v 7.16601 l -3.47656,3.47657 h -7.16407 l -3.47851,-3.47657 v -7.16601 z"
       id="path107" /><path
       style="color:#000000;fill:#000000;stroke-linecap:round;stroke-linejoin:round;stroke-miterlimit:10;-inkscape-stroke:none;opacity:0.15"
       d="m 324.25977,194.11328 a 0.62430501,0.62430501 0 0 0 -0.36133,0.31445 L 312.375,217.47656 a 0.62430501,0.62430501 0 0 0 0.2793,0.83789 0.62430501,0.62430501 0 0 0 0.83593,-0.27929 l 11.52539,-23.05079 a 0.62430501,0.62430501 0 0 0 -0.27929,-0.83593 0.62430501,0.62430501 0 0 0 -0.47656,-0.0352 z"
       id="path108" /><path
       style="color:#000000;fill:#000000;stroke-linecap:round;stroke-linejoin:round;stroke-miterlimit:10;-inkscape-stroke:none;opacity:0.15"
       d="m 345.78516,194.11328 a 0.62436744,0.62436744 0 0 0 -0.69727,0.21875 l -11.52344,15.36719 a 0.62436744,0.62436744 0 0 0 0.49805,0.99805 h 10.90234 v 7.05859 a 0.62430501,0.62430501 0 0 0 0.62305,0.625 0.62430501,0.62430501 0 0 0 0.625,-0.625 v -7.05859 h 3.2168 a 0.62430501,0.62430501 0 0 0 0.625,-0.625 0.62430501,0.62430501 0 0 0 -0.625,-0.62305 h -3.2168 v -14.74414 a 0.62436744,0.62436744 0 0 0 -0.42773,-0.5918 z m -0.82032,2.46484 v 12.8711 h -9.65429 z"
       id="path109" /><path
       style="color:#000000;fill:#000000;stroke-linecap:round;stroke-linejoin:round;stroke-miterlimit:10;-inkscape-stroke:none;opacity:0.15"
       d="m 357.11328,213.29102 a 0.62430501,0.62430501 0 0 0 -0.625,0.62304 v 3.8418 a 0.62430501,0.62430501 0 0 0 0.625,0.625 0.62430501,0.62430501 0 0 0 0.625,-0.625 v -3.8418 a 0.62430501,0.62430501 0 0 0 -0.625,-0.62304 z"
       id="path110" /><path
       style="color:#000000;fill:#000000;stroke-linecap:round;stroke-linejoin:round;stroke-miterlimit:10;-inkscape-stroke:none;opacity:0.15"
       d="m 364.79883,194.08203 a 0.62430501,0.62430501 0 0 0 -0.625,0.62305 0.62430501,0.62430501 0 0 0 0.625,0.625 h 14.35742 l -11.07422,22.14648 a 0.62430501,0.62430501 0 0 0 0.2793,0.83789 0.62430501,0.62430501 0 0 0 0.83789,-0.27929 l 11.52539,-23.05079 a 0.62436744,0.62436744 0 0 0 -0.55859,-0.90234 z"
       id="path111" /><path
       style="color:#000000;fill:#000000;stroke-linecap:round;stroke-linejoin:round;stroke-miterlimit:10;-inkscape-stroke:none;opacity:0.15"
       d="m 387.84961,194.08203 a 0.62436744,0.62436744 0 0 0 -0.625,0.62305 v 7.68359 a 0.62436744,0.62436744 0 0 0 0.625,0.625 h 11.26562 l 3.47657,3.47656 v 7.16602 l -3.47657,3.47656 h -7.16601 l -3.6582,-3.66015 a 0.62430501,0.62430501 0 0 0 -0.88282,0 0.62430501,0.62430501 0 0 0 0,0.88281 l 3.8418,3.8418 a 0.62436744,0.62436744 0 0 0 0.44141,0.18359 h 7.68359 a 0.62436744,0.62436744 0 0 0 0.44141,-0.18359 l 3.84179,-3.8418 a 0.62436744,0.62436744 0 0 0 0.18164,-0.44141 v -7.68359 a 0.62436744,0.62436744 0 0 0 -0.18164,-0.44141 l -3.84179,-3.84179 a 0.62436744,0.62436744 0 0 0 -0.44141,-0.18165 h -10.90234 v -6.43554 h 14.74414 a 0.62430501,0.62430501 0 0 0 0.62304,-0.625 0.62430501,0.62430501 0 0 0 -0.62304,-0.62305 z"
       id="path112" /><path
       style="color:#000000;fill:#000000;stroke-linecap:round;stroke-linejoin:round;stroke-miterlimit:10;-inkscape-stroke:none;opacity:0.15"
       d="m 414.74414,194.08203 a 0.62436744,0.62436744 0 0 0 -0.44141,0.18164 l -3.84179,3.8418 a 0.62436744,0.62436744 0 0 0 -0.1836,0.4414 v 15.36719 a 0.62436744,0.62436744 0 0 0 0.1836,0.44141 l 3.84179,3.8418 a 0.62436744,0.62436744 0 0 0 0.44141,0.18359 h 3.8418 a 0.62436744,0.62436744 0 0 0 0.4414,-0.18359 l 3.8418,-3.8418 a 0.62436744,0.62436744 0 0 0 0.18164,-0.44141 v -15.36719 a 0.62436744,0.62436744 0 0 0 -0.18164,-0.4414 l -3.8418,-3.8418 a 0.62436744,0.62436744 0 0 0 -0.4414,-0.18164 z m 0.25781,1.24805 h 3.32422 l 3.47656,3.47656 v 14.84961 l -3.47656,3.47656 h -3.32226 l -3.47852,-3.47656 v -14.84961 z"
       id="path113" /><g
       id="path114"
       style="opacity:0.15"><path
         style="color:#000000;fill:#000000;stroke-linecap:round;stroke-linejoin:round;stroke-miterlimit:10;-inkscape-stroke:none"
         d="m 464.50383,271.91038 6.25839,10.26078 -2.59216,-11.73658 z"
         id="path131" /><path
         style="color:#000000;fill:#000000;stroke-linecap:round;stroke-linejoin:round;stroke-miterlimit:10;-inkscape-stroke:none"
         d="m 468.13086,270.33594 -3.66602,1.47656 a 0.10572657,0.10572657 0 0 0 -0.0508,0.15234 l 6.25781,10.26172 a 0.10572657,0.10572657 0 0 0 0.19336,-0.0781 l -2.59179,-11.73633 a 0.10572657,0.10572657 0 0 0 -0.14258,-0.0762 z m -0.0371,0.24414 2.42773,10.99414 -5.86328,-9.61328 z"
         id="path132" /></g><path
       style="color:#000000;opacity:0.15;fill:#000000;stroke-width:0.951186;stroke-linecap:round;stroke-linejoin:round;stroke-miterlimit:10;-inkscape-stroke:none"
       d="m 524.40532,426.66406 a 0.56484275,0.62430501 0 0 0 -0.56547,0.62305 0.56484275,0.62430501 0 0 0 0.56547,0.625 h 10.72629 a 0.56484275,0.62430501 0 0 0 0.5637,-0.625 0.56484275,0.62430501 0 0 0 -0.5637,-0.62305 z"
       id="path115" /><path
       style="color:#000000;fill:#000000;stroke-linecap:round;stroke-linejoin:round;stroke-miterlimit:10;-inkscape-stroke:none;opacity:0.15"
       d="m 374.22656,267.79492 a 0.62430501,0.62430501 0 0 0 -0.625,0.625 0.62430501,0.62430501 0 0 0 0.625,0.62305 h 11.57813 l 74.38672,82.60742 a 0.62430501,0.62430501 0 0 0 0.88281,0.0469 0.62430501,0.62430501 0 0 0 0.0449,-0.88086 l -74.57422,-82.81446 a 0.62436744,0.62436744 0 0 0 -0.46289,-0.20703 z"
       id="path117" /><path
       style="color:#000000;fill:#000000;stroke-linecap:round;stroke-linejoin:round;stroke-miterlimit:10;-inkscape-stroke:none;opacity:0.15"
       d="m 256.88672,260.10937 a 0.62436744,0.62436744 0 0 0 -0.44141,0.1836 l -3.84375,3.84375 a 0.62436744,0.62436744 0 0 0 -0.18359,0.4414 v 7.6836 a 0.62436744,0.62436744 0 0 0 0.18359,0.4414 l 3.84375,3.8418 a 0.62436744,0.62436744 0 0 0 0.44141,0.18164 h 7.68359 a 0.62436744,0.62436744 0 0 0 0.44141,-0.18164 l 3.8418,-3.8418 a 0.62436744,0.62436744 0 0 0 0.18164,-0.4414 v -7.6836 a 0.62436744,0.62436744 0 0 0 -0.18164,-0.4414 l -3.8418,-3.84375 a 0.62436744,0.62436744 0 0 0 -0.44141,-0.1836 z m 0.25781,1.24805 h 7.16602 l 3.47656,3.47852 v 7.16601 l -3.47656,3.47657 h -7.16602 l -3.47851,-3.47657 v -7.16601 z"
       id="path118" /><path
       style="color:#000000;fill:#000000;stroke-linecap:round;stroke-linejoin:round;stroke-miterlimit:10;-inkscape-stroke:none;opacity:0.15"
       d="m 266.29297,256.30078 a 0.62430501,0.62430501 0 0 0 -0.36133,0.3125 l -11.52539,23.05274 a 0.62430501,0.62430501 0 0 0 0.2793,0.83789 0.62430501,0.62430501 0 0 0 0.83789,-0.2793 l 11.52539,-23.05274 a 0.62430501,0.62430501 0 0 0 -0.2793,-0.83789 0.62430501,0.62430501 0 0 0 -0.47656,-0.0332 z"
       id="path119" /><path
       style="color:#000000;fill:#000000;stroke-linecap:round;stroke-linejoin:round;stroke-miterlimit:10;-inkscape-stroke:none;opacity:0.15"
       d="m 279.9375,256.26758 a 0.62436744,0.62436744 0 0 0 -0.44336,0.18359 l -3.83984,3.8418 a 0.62430501,0.62430501 0 0 0 0,0.88281 0.62430501,0.62430501 0 0 0 0.88281,0 l 3.6582,-3.6582 h 7.16602 l 3.47656,3.47461 v 3.32617 l -3.47656,3.47656 h -7.42383 a 0.62436744,0.62436744 0 0 0 -0.44336,0.1836 l -3.83984,3.84179 a 0.62436744,0.62436744 0 0 0 -0.1836,0.44141 v 7.68359 a 0.62436744,0.62436744 0 0 0 0.625,0.62305 h 15.36524 a 0.62430501,0.62430501 0 0 0 0.625,-0.62305 0.62430501,0.62430501 0 0 0 -0.625,-0.625 h -14.74219 v -6.80078 l 3.47656,-3.47656 h 7.42383 a 0.62436744,0.62436744 0 0 0 0.44141,-0.18164 l 3.84179,-3.8418 a 0.62436744,0.62436744 0 0 0 0.1836,-0.44141 v -3.84375 a 0.62436744,0.62436744 0 0 0 -0.1836,-0.4414 l -3.84179,-3.8418 a 0.62436744,0.62436744 0 0 0 -0.44141,-0.18359 z"
       id="path120" /><path
       style="color:#000000;fill:#000000;stroke-linecap:round;stroke-linejoin:round;stroke-miterlimit:10;-inkscape-stroke:none;opacity:0.15"
       d="m 299.14453,275.47852 a 0.62430501,0.62430501 0 0 0 -0.62305,0.625 v 3.84179 a 0.62430501,0.62430501 0 0 0 0.62305,0.62305 0.62430501,0.62430501 0 0 0 0.625,-0.62305 v -3.84179 a 0.62430501,0.62430501 0 0 0 -0.625,-0.625 z"
       id="path121" /><path
       style="color:#000000;fill:#000000;stroke-linecap:round;stroke-linejoin:round;stroke-miterlimit:10;-inkscape-stroke:none;opacity:0.15"
       d="m 306.83008,256.26758 a 0.62430501,0.62430501 0 0 0 -0.62305,0.625 0.62430501,0.62430501 0 0 0 0.62305,0.625 h 14.35742 l -11.07422,22.14844 a 0.62430501,0.62430501 0 0 0 0.2793,0.83789 0.62430501,0.62430501 0 0 0 0.83789,-0.2793 l 11.52539,-23.05274 a 0.62436744,0.62436744 0 0 0 -0.55859,-0.90429 z"
       id="path122" /><path
       style="color:#000000;fill:#000000;stroke-linecap:round;stroke-linejoin:round;stroke-miterlimit:10;-inkscape-stroke:none;opacity:0.15"
       d="m 341.60352,256.30078 a 0.62436744,0.62436744 0 0 0 -0.69727,0.2168 l -11.52539,15.36914 a 0.62436744,0.62436744 0 0 0 0.5,0.99805 h 10.90039 v 7.06054 a 0.62430501,0.62430501 0 0 0 0.625,0.62305 0.62430501,0.62430501 0 0 0 0.625,-0.62305 v -7.06054 h 3.2168 a 0.62430501,0.62430501 0 0 0 0.625,-0.62305 0.62430501,0.62430501 0 0 0 -0.625,-0.625 h -3.2168 v -14.74414 a 0.62436744,0.62436744 0 0 0 -0.42773,-0.5918 z m -0.82227,2.4668 v 12.86914 h -9.65039 z"
       id="path123" /><path
       style="color:#000000;fill:#000000;stroke-linecap:round;stroke-linejoin:round;stroke-miterlimit:10;-inkscape-stroke:none;opacity:0.15"
       d="m 356.77539,256.26758 a 0.62436744,0.62436744 0 0 0 -0.44141,0.18359 l -3.84375,3.8418 a 0.62436744,0.62436744 0 0 0 -0.18359,0.4414 v 3.84375 a 0.62436744,0.62436744 0 0 0 0.18359,0.44141 l 3.84375,3.8418 a 0.62436744,0.62436744 0 0 0 0.44141,0.18164 h 7.42383 l 3.47656,3.47656 v 3.32422 l -3.47656,3.47656 h -7.42383 a 0.62430501,0.62430501 0 0 0 -0.625,0.625 0.62430501,0.62430501 0 0 0 0.625,0.62305 h 7.68359 a 0.62436744,0.62436744 0 0 0 0.44141,-0.18164 l 3.8418,-3.8418 a 0.62436744,0.62436744 0 0 0 0.18164,-0.4414 v -3.8418 a 0.62436744,0.62436744 0 0 0 -0.18164,-0.44141 l -3.40039,-3.40039 3.40039,-3.40039 a 0.62436744,0.62436744 0 0 0 0.18164,-0.44141 v -3.84375 a 0.62436744,0.62436744 0 0 0 -0.18164,-0.4414 l -3.8418,-3.8418 a 0.62436744,0.62436744 0 0 0 -0.44141,-0.18359 z m 0.25781,1.25 h 7.16602 l 3.47656,3.47461 v 3.32617 l -3.47461,3.47656 h -7.16797 l -3.47851,-3.47656 v -3.32617 z"
       id="path124" /><path
       style="color:#000000;fill:#000000;stroke-linecap:round;stroke-linejoin:round;stroke-miterlimit:10;-inkscape-stroke:none;opacity:0.15"
       d="m 356.77539,267.79492 a 0.62430501,0.62430501 0 0 0 -0.44141,0.1836 l -3.84375,3.84179 a 0.62436744,0.62436744 0 0 0 -0.18359,0.44141 v 3.8418 a 0.62436744,0.62436744 0 0 0 0.18359,0.4414 l 3.84375,3.8418 a 0.62430501,0.62430501 0 0 0 0.88282,0 0.62430501,0.62430501 0 0 0 0,-0.88281 l -3.66211,-3.66016 v -3.32422 l 3.66211,-3.6582 a 0.62430501,0.62430501 0 0 0 0,-0.88281 0.62430501,0.62430501 0 0 0 -0.44141,-0.1836 z"
       id="path125" /><g
       id="path126"
       style="opacity:0.15"><path
         style="color:#000000;fill:#000000;stroke-linecap:round;stroke-linejoin:round;stroke-miterlimit:10;-inkscape-stroke:none"
         d="m 459.18844,352.55259 9.40026,7.48891 -6.46347,-10.13182 z"
         id="path129" /><path
         style="color:#000000;fill:#000000;stroke-linecap:round;stroke-linejoin:round;stroke-miterlimit:10;-inkscape-stroke:none"
         d="m 462.13867,349.80469 a 0.10572657,0.10572657 0 0 0 -0.084,0.0273 l -2.9375,2.64258 a 0.10572657,0.10572657 0 0 0 0.006,0.16016 l 9.40039,7.49023 a 0.10572657,0.10572657 0 0 0 0.15429,-0.14063 l -6.46289,-10.13085 a 0.10572657,0.10572657 0 0 0 -0.0762,-0.0488 z m -0.0371,0.26758 6.0586,9.49414 -8.8086,-7.01758 z"
         id="path130" /></g></g><g
     id="layer-OC2"
     inkscape:groupmode="layer"
     inkscape:label="Boarder"
     transform="matrix(0.26458333,0,0,0.26458334,2.125984e-6,0)" /><g
     id="layer-OC3"
     inkscape:groupmode="layer"
     inkscape:label="Building"
     transform="matrix(0.26458333,0,0,0.26458334,2.125984e-6,0)" /><g
     id="layer-MC0"
     inkscape:groupmode="layer"
     inkscape:label="0"
     transform="matrix(0.26458333,0,0,0.26458334,2.125984e-6,0)" /></svg>
